G04 EAGLE Gerber RS-274X export*
G75*
%MOMM*%
%FSLAX34Y34*%
%LPD*%
%INBottom Copper*%
%IPPOS*%
%AMOC8*
5,1,8,0,0,1.08239X$1,22.5*%
G01*
%ADD10R,1.000000X0.800000*%
%ADD11R,0.800000X1.000000*%
%ADD12C,0.150000*%
%ADD13R,3.200000X3.200000*%
%ADD14R,0.900000X0.500000*%
%ADD15R,1.600000X1.100000*%
%ADD16R,0.500000X0.300000*%
%ADD17R,1.780000X0.720000*%
%ADD18C,0.720000*%
%ADD19C,1.408000*%
%ADD20C,2.250000*%
%ADD21R,1.000000X1.100000*%
%ADD22R,1.000000X1.400000*%
%ADD23R,0.800000X2.000000*%
%ADD24R,0.450000X0.590000*%
%ADD25C,0.200000*%
%ADD26C,0.906400*%
%ADD27C,0.180000*%
%ADD28C,0.756400*%
%ADD29C,0.300000*%
%ADD30C,0.800000*%
%ADD31C,0.152400*%


D10*
X453000Y153000D03*
X469000Y153000D03*
D11*
X491000Y124000D03*
X491000Y108000D03*
X579000Y132000D03*
X579000Y148000D03*
X502000Y102000D03*
X502000Y86000D03*
D10*
X469000Y165000D03*
X453000Y165000D03*
D12*
X507750Y125750D02*
X513250Y125750D01*
X507750Y125750D02*
X507750Y127250D01*
X513250Y127250D01*
X513250Y125750D01*
X513250Y127175D02*
X507750Y127175D01*
X507750Y130750D02*
X513250Y130750D01*
X507750Y130750D02*
X507750Y132250D01*
X513250Y132250D01*
X513250Y130750D01*
X513250Y132175D02*
X507750Y132175D01*
X507750Y135750D02*
X513250Y135750D01*
X507750Y135750D02*
X507750Y137250D01*
X513250Y137250D01*
X513250Y135750D01*
X513250Y137175D02*
X507750Y137175D01*
X507750Y140750D02*
X513250Y140750D01*
X507750Y140750D02*
X507750Y142250D01*
X513250Y142250D01*
X513250Y140750D01*
X513250Y142175D02*
X507750Y142175D01*
X507750Y145750D02*
X513250Y145750D01*
X507750Y145750D02*
X507750Y147250D01*
X513250Y147250D01*
X513250Y145750D01*
X513250Y147175D02*
X507750Y147175D01*
X507750Y150750D02*
X513250Y150750D01*
X507750Y150750D02*
X507750Y152250D01*
X513250Y152250D01*
X513250Y150750D01*
X513250Y152175D02*
X507750Y152175D01*
X507750Y155750D02*
X513250Y155750D01*
X507750Y155750D02*
X507750Y157250D01*
X513250Y157250D01*
X513250Y155750D01*
X513250Y157175D02*
X507750Y157175D01*
X507750Y160750D02*
X513250Y160750D01*
X507750Y160750D02*
X507750Y162250D01*
X513250Y162250D01*
X513250Y160750D01*
X513250Y162175D02*
X507750Y162175D01*
X515750Y164750D02*
X517250Y164750D01*
X515750Y164750D02*
X515750Y170250D01*
X517250Y170250D01*
X517250Y164750D01*
X517250Y166175D02*
X515750Y166175D01*
X515750Y167600D02*
X517250Y167600D01*
X517250Y169025D02*
X515750Y169025D01*
X520750Y164750D02*
X522250Y164750D01*
X520750Y164750D02*
X520750Y170250D01*
X522250Y170250D01*
X522250Y164750D01*
X522250Y166175D02*
X520750Y166175D01*
X520750Y167600D02*
X522250Y167600D01*
X522250Y169025D02*
X520750Y169025D01*
X525750Y164750D02*
X527250Y164750D01*
X525750Y164750D02*
X525750Y170250D01*
X527250Y170250D01*
X527250Y164750D01*
X527250Y166175D02*
X525750Y166175D01*
X525750Y167600D02*
X527250Y167600D01*
X527250Y169025D02*
X525750Y169025D01*
X530750Y164750D02*
X532250Y164750D01*
X530750Y164750D02*
X530750Y170250D01*
X532250Y170250D01*
X532250Y164750D01*
X532250Y166175D02*
X530750Y166175D01*
X530750Y167600D02*
X532250Y167600D01*
X532250Y169025D02*
X530750Y169025D01*
X535750Y164750D02*
X537250Y164750D01*
X535750Y164750D02*
X535750Y170250D01*
X537250Y170250D01*
X537250Y164750D01*
X537250Y166175D02*
X535750Y166175D01*
X535750Y167600D02*
X537250Y167600D01*
X537250Y169025D02*
X535750Y169025D01*
X540750Y164750D02*
X542250Y164750D01*
X540750Y164750D02*
X540750Y170250D01*
X542250Y170250D01*
X542250Y164750D01*
X542250Y166175D02*
X540750Y166175D01*
X540750Y167600D02*
X542250Y167600D01*
X542250Y169025D02*
X540750Y169025D01*
X545750Y164750D02*
X547250Y164750D01*
X545750Y164750D02*
X545750Y170250D01*
X547250Y170250D01*
X547250Y164750D01*
X547250Y166175D02*
X545750Y166175D01*
X545750Y167600D02*
X547250Y167600D01*
X547250Y169025D02*
X545750Y169025D01*
X550750Y164750D02*
X552250Y164750D01*
X550750Y164750D02*
X550750Y170250D01*
X552250Y170250D01*
X552250Y164750D01*
X552250Y166175D02*
X550750Y166175D01*
X550750Y167600D02*
X552250Y167600D01*
X552250Y169025D02*
X550750Y169025D01*
X554750Y160750D02*
X560250Y160750D01*
X554750Y160750D02*
X554750Y162250D01*
X560250Y162250D01*
X560250Y160750D01*
X560250Y162175D02*
X554750Y162175D01*
X554750Y155750D02*
X560250Y155750D01*
X554750Y155750D02*
X554750Y157250D01*
X560250Y157250D01*
X560250Y155750D01*
X560250Y157175D02*
X554750Y157175D01*
X554750Y150750D02*
X560250Y150750D01*
X554750Y150750D02*
X554750Y152250D01*
X560250Y152250D01*
X560250Y150750D01*
X560250Y152175D02*
X554750Y152175D01*
X554750Y145750D02*
X560250Y145750D01*
X554750Y145750D02*
X554750Y147250D01*
X560250Y147250D01*
X560250Y145750D01*
X560250Y147175D02*
X554750Y147175D01*
X554750Y140750D02*
X560250Y140750D01*
X554750Y140750D02*
X554750Y142250D01*
X560250Y142250D01*
X560250Y140750D01*
X560250Y142175D02*
X554750Y142175D01*
X554750Y135750D02*
X560250Y135750D01*
X554750Y135750D02*
X554750Y137250D01*
X560250Y137250D01*
X560250Y135750D01*
X560250Y137175D02*
X554750Y137175D01*
X554750Y130750D02*
X560250Y130750D01*
X554750Y130750D02*
X554750Y132250D01*
X560250Y132250D01*
X560250Y130750D01*
X560250Y132175D02*
X554750Y132175D01*
X554750Y125750D02*
X560250Y125750D01*
X554750Y125750D02*
X554750Y127250D01*
X560250Y127250D01*
X560250Y125750D01*
X560250Y127175D02*
X554750Y127175D01*
X552250Y117750D02*
X550750Y117750D01*
X550750Y123250D01*
X552250Y123250D01*
X552250Y117750D01*
X552250Y119175D02*
X550750Y119175D01*
X550750Y120600D02*
X552250Y120600D01*
X552250Y122025D02*
X550750Y122025D01*
X547250Y117750D02*
X545750Y117750D01*
X545750Y123250D01*
X547250Y123250D01*
X547250Y117750D01*
X547250Y119175D02*
X545750Y119175D01*
X545750Y120600D02*
X547250Y120600D01*
X547250Y122025D02*
X545750Y122025D01*
X542250Y117750D02*
X540750Y117750D01*
X540750Y123250D01*
X542250Y123250D01*
X542250Y117750D01*
X542250Y119175D02*
X540750Y119175D01*
X540750Y120600D02*
X542250Y120600D01*
X542250Y122025D02*
X540750Y122025D01*
X537250Y117750D02*
X535750Y117750D01*
X535750Y123250D01*
X537250Y123250D01*
X537250Y117750D01*
X537250Y119175D02*
X535750Y119175D01*
X535750Y120600D02*
X537250Y120600D01*
X537250Y122025D02*
X535750Y122025D01*
X532250Y117750D02*
X530750Y117750D01*
X530750Y123250D01*
X532250Y123250D01*
X532250Y117750D01*
X532250Y119175D02*
X530750Y119175D01*
X530750Y120600D02*
X532250Y120600D01*
X532250Y122025D02*
X530750Y122025D01*
X527250Y117750D02*
X525750Y117750D01*
X525750Y123250D01*
X527250Y123250D01*
X527250Y117750D01*
X527250Y119175D02*
X525750Y119175D01*
X525750Y120600D02*
X527250Y120600D01*
X527250Y122025D02*
X525750Y122025D01*
X522250Y117750D02*
X520750Y117750D01*
X520750Y123250D01*
X522250Y123250D01*
X522250Y117750D01*
X522250Y119175D02*
X520750Y119175D01*
X520750Y120600D02*
X522250Y120600D01*
X522250Y122025D02*
X520750Y122025D01*
X517250Y117750D02*
X515750Y117750D01*
X515750Y123250D01*
X517250Y123250D01*
X517250Y117750D01*
X517250Y119175D02*
X515750Y119175D01*
X515750Y120600D02*
X517250Y120600D01*
X517250Y122025D02*
X515750Y122025D01*
D13*
X534000Y144000D03*
D14*
X531000Y68000D03*
X531000Y76000D03*
X531000Y84000D03*
X531000Y92000D03*
X547000Y92000D03*
X547000Y84000D03*
X547000Y76000D03*
X547000Y68000D03*
D15*
X486000Y175500D03*
X486000Y142500D03*
D16*
X517000Y77000D03*
X517000Y72000D03*
X517000Y67000D03*
X503000Y67000D03*
X503000Y72000D03*
X503000Y77000D03*
D17*
X389000Y107000D03*
D18*
X383700Y119700D02*
X394300Y119700D01*
X394300Y132400D02*
X383700Y132400D01*
X383700Y145100D02*
X394300Y145100D01*
D19*
X613000Y125000D03*
X613000Y85000D03*
X613000Y65000D03*
X613000Y45000D03*
D20*
X613000Y146000D03*
X613000Y24000D03*
D21*
X471500Y74000D03*
X488500Y74000D03*
D22*
X479000Y111000D03*
X469500Y89000D03*
X488500Y89000D03*
D23*
X521750Y35000D03*
X511750Y35000D03*
X501750Y35000D03*
X491750Y35000D03*
X531750Y35000D03*
X541750Y35000D03*
X481750Y35000D03*
X551750Y35000D03*
D24*
X457000Y71450D03*
X457000Y92550D03*
D25*
X517000Y72000D02*
X522000Y72000D01*
X526000Y68000D02*
X531000Y68000D01*
X526000Y68000D02*
X522000Y72000D01*
X531000Y68000D02*
X531750Y67250D01*
X531750Y35000D01*
X471500Y74000D02*
X471500Y87000D01*
X469500Y89000D01*
X501750Y35000D02*
X501750Y24750D01*
X476705Y22476D02*
X457000Y42181D01*
X457000Y71450D01*
X501750Y24750D02*
X499476Y22476D01*
X476705Y22476D01*
X457000Y71450D02*
X459550Y74000D01*
X471500Y74000D01*
X517000Y77000D02*
X523000Y77000D01*
X524000Y76000D02*
X531000Y76000D01*
X524000Y76000D02*
X523000Y77000D01*
X531000Y76000D02*
X537000Y76000D01*
X539000Y74000D01*
X541750Y62681D02*
X541750Y35000D01*
X541750Y62681D02*
X539000Y65431D01*
X539000Y74000D01*
X486000Y165000D02*
X486000Y175500D01*
X486000Y165000D02*
X469000Y165000D01*
X486000Y165000D02*
X489500Y161500D01*
X510500Y161500D01*
X486000Y153000D02*
X486000Y142500D01*
X486000Y153000D02*
X469000Y153000D01*
X486000Y153000D02*
X489500Y156500D01*
X510500Y156500D01*
D26*
X389000Y145000D03*
D27*
X389000Y145100D01*
D25*
X526500Y167500D02*
X526500Y176500D01*
X526000Y177000D01*
D28*
X526000Y177000D03*
D25*
X526500Y120500D02*
X526500Y101500D01*
X525000Y100000D01*
D28*
X525000Y100000D03*
D25*
X521500Y109352D02*
X521500Y120500D01*
X521500Y109352D02*
X519574Y107426D01*
D28*
X519574Y107426D03*
D25*
X516500Y115500D02*
X516500Y120500D01*
X515000Y114000D02*
X513000Y114000D01*
D28*
X513000Y114000D03*
D25*
X515000Y114000D02*
X516500Y115500D01*
D28*
X407688Y124700D03*
D25*
X402688Y119700D01*
X389000Y119700D01*
X536500Y167500D02*
X536500Y177500D01*
X536000Y178000D01*
D28*
X536000Y178000D03*
D29*
X534000Y146500D02*
X510500Y146500D01*
D25*
X534000Y146500D02*
X534000Y145000D01*
X534000Y144000D02*
X534000Y141500D01*
D28*
X534000Y145000D03*
D25*
X534000Y144000D01*
D26*
X389000Y107000D03*
D28*
X560000Y35000D03*
D29*
X521750Y62250D02*
X517000Y67000D01*
X521750Y62250D02*
X521750Y35000D01*
X521750Y21660D01*
X551750Y21660D02*
X551750Y35000D01*
X551750Y21660D02*
X521750Y21660D01*
X551750Y35000D02*
X560000Y35000D01*
X496000Y108000D02*
X491000Y108000D01*
X496000Y108000D02*
X502000Y102000D01*
X499000Y108000D02*
X496000Y108000D01*
X499000Y108000D02*
X500000Y109000D01*
D28*
X500000Y109000D03*
D29*
X557500Y141500D02*
X569500Y141500D01*
X579000Y132000D01*
X557500Y141500D02*
X536500Y141500D01*
X534000Y144000D01*
D25*
X457000Y92550D02*
X450550Y99000D01*
X448000Y99000D01*
D28*
X448000Y99000D03*
D30*
X453000Y153000D02*
X453000Y165000D01*
X453000Y153000D02*
X453000Y118000D01*
D28*
X453000Y118000D03*
D30*
X453000Y165000D02*
X443000Y165000D01*
D28*
X443000Y165000D03*
D25*
X547254Y178048D02*
X575952Y178048D01*
X541500Y172294D02*
X541500Y167500D01*
X541500Y172294D02*
X547254Y178048D01*
X575952Y178048D02*
X598000Y156000D01*
X598000Y133000D01*
X606000Y125000D01*
X613000Y125000D01*
X548206Y174000D02*
X546500Y172294D01*
X546500Y167500D01*
X575000Y174000D02*
X594000Y155000D01*
X575000Y174000D02*
X548206Y174000D01*
X594000Y64000D02*
X613000Y45000D01*
X594000Y64000D02*
X594000Y155000D01*
D31*
X503000Y85000D02*
X502000Y86000D01*
D29*
X503000Y85000D02*
X503000Y77000D01*
X498000Y77000D01*
X496524Y75524D01*
X496524Y67247D01*
X492000Y62723D01*
X484277Y62723D01*
X480000Y67000D01*
X480000Y110000D02*
X479000Y111000D01*
X480000Y110000D02*
X480000Y67000D01*
X479000Y111000D02*
X479000Y112000D01*
X491000Y124000D01*
X503500Y141500D02*
X510500Y141500D01*
X491000Y129000D02*
X491000Y124000D01*
X491000Y129000D02*
X499000Y137000D01*
X503500Y141500D01*
X499000Y137000D02*
X499000Y148000D01*
X500000Y149000D01*
D28*
X500000Y149000D03*
D29*
X579000Y148000D02*
X579000Y152000D01*
X574500Y156500D01*
X557500Y156500D01*
X579000Y148000D02*
X587000Y140000D01*
X587000Y122000D01*
D28*
X587000Y122000D03*
D29*
X419600Y132400D02*
X389000Y132400D01*
X441000Y111000D02*
X479000Y111000D01*
X441000Y111000D02*
X419600Y132400D01*
D25*
X547000Y84000D02*
X553000Y84000D01*
X555000Y86000D02*
X555000Y111000D01*
X555000Y86000D02*
X553000Y84000D01*
X551500Y114500D02*
X551500Y120500D01*
X551500Y114500D02*
X555000Y111000D01*
X568000Y84000D02*
X552000Y68000D01*
X568000Y84000D02*
X568000Y132000D01*
X563500Y136500D01*
X557500Y136500D01*
X552000Y68000D02*
X547000Y68000D01*
X547000Y76000D02*
X553000Y76000D01*
X564000Y87000D01*
X564000Y131016D01*
X563508Y131508D01*
X557508Y131508D01*
X557500Y131500D01*
X493500Y94000D02*
X488500Y89000D01*
X506570Y94000D02*
X508570Y92000D01*
X531000Y92000D01*
X506570Y94000D02*
X493500Y94000D01*
X491750Y55750D02*
X491750Y35000D01*
X491750Y55750D02*
X496000Y60000D01*
X506000Y60000D01*
X510000Y64000D01*
X510000Y77570D02*
X516431Y84000D01*
X531000Y84000D01*
X510000Y77570D02*
X510000Y72000D01*
X510000Y64000D01*
X510000Y72000D02*
X503000Y72000D01*
M02*
