G04 EAGLE Gerber RS-274X export*
G75*
%MOMM*%
%FSLAX34Y34*%
%LPD*%
%INSilkscreen Top*%
%IPPOS*%
%AMOC8*
5,1,8,0,0,1.08239X$1,22.5*%
G01*
%ADD10C,0.152400*%
%ADD11C,0.101600*%
%ADD12C,0.127000*%


D10*
X517954Y116872D02*
X517954Y133128D01*
X522469Y133128D01*
X522600Y133126D01*
X522732Y133120D01*
X522863Y133111D01*
X522993Y133097D01*
X523124Y133080D01*
X523253Y133059D01*
X523382Y133035D01*
X523510Y133006D01*
X523638Y132974D01*
X523764Y132938D01*
X523889Y132899D01*
X524014Y132856D01*
X524136Y132809D01*
X524258Y132759D01*
X524378Y132705D01*
X524496Y132648D01*
X524612Y132587D01*
X524727Y132523D01*
X524840Y132456D01*
X524951Y132385D01*
X525059Y132311D01*
X525166Y132234D01*
X525270Y132154D01*
X525372Y132071D01*
X525471Y131986D01*
X525568Y131897D01*
X525662Y131805D01*
X525754Y131711D01*
X525843Y131614D01*
X525928Y131515D01*
X526011Y131413D01*
X526091Y131309D01*
X526168Y131202D01*
X526242Y131094D01*
X526313Y130983D01*
X526380Y130870D01*
X526444Y130755D01*
X526505Y130639D01*
X526562Y130521D01*
X526616Y130401D01*
X526666Y130279D01*
X526713Y130157D01*
X526756Y130032D01*
X526795Y129907D01*
X526831Y129781D01*
X526863Y129653D01*
X526892Y129525D01*
X526916Y129396D01*
X526937Y129267D01*
X526954Y129136D01*
X526968Y129006D01*
X526977Y128875D01*
X526983Y128743D01*
X526985Y128612D01*
X526985Y121388D01*
X526983Y121257D01*
X526977Y121125D01*
X526968Y120994D01*
X526954Y120864D01*
X526937Y120733D01*
X526916Y120604D01*
X526892Y120475D01*
X526863Y120347D01*
X526831Y120219D01*
X526795Y120093D01*
X526756Y119968D01*
X526713Y119843D01*
X526666Y119721D01*
X526616Y119599D01*
X526562Y119479D01*
X526505Y119361D01*
X526444Y119245D01*
X526380Y119130D01*
X526313Y119017D01*
X526242Y118906D01*
X526168Y118798D01*
X526091Y118691D01*
X526011Y118587D01*
X525928Y118485D01*
X525843Y118386D01*
X525754Y118289D01*
X525662Y118195D01*
X525568Y118103D01*
X525471Y118014D01*
X525372Y117929D01*
X525270Y117846D01*
X525166Y117766D01*
X525059Y117689D01*
X524951Y117615D01*
X524840Y117544D01*
X524727Y117477D01*
X524612Y117413D01*
X524496Y117352D01*
X524378Y117295D01*
X524258Y117241D01*
X524136Y117191D01*
X524014Y117144D01*
X523889Y117101D01*
X523764Y117062D01*
X523638Y117026D01*
X523510Y116994D01*
X523382Y116965D01*
X523253Y116941D01*
X523123Y116920D01*
X522993Y116903D01*
X522863Y116889D01*
X522732Y116880D01*
X522600Y116874D01*
X522469Y116872D01*
X517954Y116872D01*
X534573Y116872D02*
X534573Y127709D01*
X539992Y127709D01*
X539992Y125903D01*
X544874Y127709D02*
X544874Y116872D01*
X544423Y132225D02*
X544423Y133128D01*
X545326Y133128D01*
X545326Y132225D01*
X544423Y132225D01*
X550640Y127709D02*
X554253Y116872D01*
X557865Y127709D01*
X566376Y116872D02*
X570891Y116872D01*
X566376Y116872D02*
X566275Y116874D01*
X566174Y116880D01*
X566073Y116889D01*
X565972Y116902D01*
X565872Y116919D01*
X565773Y116940D01*
X565675Y116964D01*
X565578Y116992D01*
X565481Y117024D01*
X565386Y117059D01*
X565293Y117098D01*
X565201Y117140D01*
X565110Y117186D01*
X565022Y117235D01*
X564935Y117287D01*
X564850Y117343D01*
X564767Y117401D01*
X564687Y117463D01*
X564609Y117528D01*
X564533Y117595D01*
X564460Y117665D01*
X564390Y117738D01*
X564323Y117814D01*
X564258Y117892D01*
X564196Y117972D01*
X564138Y118055D01*
X564082Y118140D01*
X564030Y118227D01*
X563981Y118315D01*
X563935Y118406D01*
X563893Y118498D01*
X563854Y118591D01*
X563819Y118686D01*
X563787Y118783D01*
X563759Y118880D01*
X563735Y118978D01*
X563714Y119077D01*
X563697Y119177D01*
X563684Y119278D01*
X563675Y119379D01*
X563669Y119480D01*
X563667Y119581D01*
X563666Y119581D02*
X563666Y124097D01*
X563667Y124097D02*
X563669Y124216D01*
X563675Y124336D01*
X563685Y124455D01*
X563699Y124573D01*
X563716Y124692D01*
X563738Y124809D01*
X563763Y124926D01*
X563793Y125041D01*
X563826Y125156D01*
X563863Y125270D01*
X563903Y125382D01*
X563948Y125493D01*
X563996Y125602D01*
X564047Y125710D01*
X564102Y125816D01*
X564161Y125920D01*
X564223Y126022D01*
X564288Y126122D01*
X564357Y126220D01*
X564429Y126316D01*
X564504Y126409D01*
X564581Y126499D01*
X564662Y126587D01*
X564746Y126672D01*
X564833Y126754D01*
X564922Y126834D01*
X565014Y126910D01*
X565108Y126984D01*
X565205Y127054D01*
X565303Y127121D01*
X565404Y127185D01*
X565508Y127245D01*
X565613Y127302D01*
X565720Y127355D01*
X565828Y127405D01*
X565938Y127451D01*
X566050Y127493D01*
X566163Y127532D01*
X566277Y127567D01*
X566392Y127598D01*
X566509Y127626D01*
X566626Y127649D01*
X566743Y127669D01*
X566862Y127685D01*
X566981Y127697D01*
X567100Y127705D01*
X567219Y127709D01*
X567339Y127709D01*
X567458Y127705D01*
X567577Y127697D01*
X567696Y127685D01*
X567815Y127669D01*
X567932Y127649D01*
X568049Y127626D01*
X568166Y127598D01*
X568281Y127567D01*
X568395Y127532D01*
X568508Y127493D01*
X568620Y127451D01*
X568730Y127405D01*
X568838Y127355D01*
X568945Y127302D01*
X569050Y127245D01*
X569154Y127185D01*
X569255Y127121D01*
X569353Y127054D01*
X569450Y126984D01*
X569544Y126910D01*
X569636Y126834D01*
X569725Y126754D01*
X569812Y126672D01*
X569896Y126587D01*
X569977Y126499D01*
X570054Y126409D01*
X570129Y126316D01*
X570201Y126220D01*
X570270Y126122D01*
X570335Y126022D01*
X570397Y125920D01*
X570456Y125816D01*
X570511Y125710D01*
X570562Y125602D01*
X570610Y125493D01*
X570655Y125382D01*
X570695Y125270D01*
X570732Y125156D01*
X570765Y125041D01*
X570795Y124926D01*
X570820Y124809D01*
X570842Y124692D01*
X570859Y124573D01*
X570873Y124455D01*
X570883Y124336D01*
X570889Y124216D01*
X570891Y124097D01*
X570891Y122291D01*
X563666Y122291D01*
X577819Y116872D02*
X577819Y127709D01*
X583238Y127709D01*
X583238Y125903D01*
X526479Y73128D02*
X521061Y56872D01*
X531898Y56872D02*
X526479Y73128D01*
X530543Y60936D02*
X522415Y60936D01*
X537977Y59581D02*
X537977Y67709D01*
X537978Y59581D02*
X537980Y59480D01*
X537986Y59379D01*
X537995Y59278D01*
X538008Y59177D01*
X538025Y59077D01*
X538046Y58978D01*
X538070Y58880D01*
X538098Y58783D01*
X538130Y58686D01*
X538165Y58591D01*
X538204Y58498D01*
X538246Y58406D01*
X538292Y58315D01*
X538341Y58226D01*
X538393Y58140D01*
X538449Y58055D01*
X538507Y57972D01*
X538569Y57892D01*
X538634Y57814D01*
X538701Y57738D01*
X538771Y57665D01*
X538844Y57595D01*
X538920Y57528D01*
X538998Y57463D01*
X539078Y57401D01*
X539161Y57343D01*
X539246Y57287D01*
X539333Y57235D01*
X539421Y57186D01*
X539512Y57140D01*
X539604Y57098D01*
X539697Y57059D01*
X539792Y57024D01*
X539889Y56992D01*
X539986Y56964D01*
X540084Y56940D01*
X540183Y56919D01*
X540283Y56902D01*
X540384Y56889D01*
X540485Y56880D01*
X540586Y56874D01*
X540687Y56872D01*
X545202Y56872D01*
X545202Y67709D01*
X550748Y67709D02*
X556167Y67709D01*
X552554Y73128D02*
X552554Y59581D01*
X552555Y59581D02*
X552557Y59480D01*
X552563Y59379D01*
X552572Y59278D01*
X552585Y59177D01*
X552602Y59077D01*
X552623Y58978D01*
X552647Y58880D01*
X552675Y58783D01*
X552707Y58686D01*
X552742Y58591D01*
X552781Y58498D01*
X552823Y58406D01*
X552869Y58315D01*
X552918Y58226D01*
X552970Y58140D01*
X553026Y58055D01*
X553084Y57972D01*
X553146Y57892D01*
X553211Y57814D01*
X553278Y57738D01*
X553348Y57665D01*
X553421Y57595D01*
X553497Y57528D01*
X553575Y57463D01*
X553655Y57401D01*
X553738Y57343D01*
X553823Y57287D01*
X553910Y57235D01*
X553998Y57186D01*
X554089Y57140D01*
X554181Y57098D01*
X554274Y57059D01*
X554369Y57024D01*
X554466Y56992D01*
X554563Y56964D01*
X554661Y56940D01*
X554760Y56919D01*
X554860Y56902D01*
X554961Y56889D01*
X555062Y56880D01*
X555163Y56874D01*
X555264Y56872D01*
X556167Y56872D01*
X561945Y60484D02*
X561945Y64097D01*
X561947Y64216D01*
X561953Y64336D01*
X561963Y64455D01*
X561977Y64573D01*
X561994Y64692D01*
X562016Y64809D01*
X562041Y64926D01*
X562071Y65041D01*
X562104Y65156D01*
X562141Y65270D01*
X562181Y65382D01*
X562226Y65493D01*
X562274Y65602D01*
X562325Y65710D01*
X562380Y65816D01*
X562439Y65920D01*
X562501Y66022D01*
X562566Y66122D01*
X562635Y66220D01*
X562707Y66316D01*
X562782Y66409D01*
X562859Y66499D01*
X562940Y66587D01*
X563024Y66672D01*
X563111Y66754D01*
X563200Y66834D01*
X563292Y66910D01*
X563386Y66984D01*
X563483Y67054D01*
X563581Y67121D01*
X563682Y67185D01*
X563786Y67245D01*
X563891Y67302D01*
X563998Y67355D01*
X564106Y67405D01*
X564216Y67451D01*
X564328Y67493D01*
X564441Y67532D01*
X564555Y67567D01*
X564670Y67598D01*
X564787Y67626D01*
X564904Y67649D01*
X565021Y67669D01*
X565140Y67685D01*
X565259Y67697D01*
X565378Y67705D01*
X565497Y67709D01*
X565617Y67709D01*
X565736Y67705D01*
X565855Y67697D01*
X565974Y67685D01*
X566093Y67669D01*
X566210Y67649D01*
X566327Y67626D01*
X566444Y67598D01*
X566559Y67567D01*
X566673Y67532D01*
X566786Y67493D01*
X566898Y67451D01*
X567008Y67405D01*
X567116Y67355D01*
X567223Y67302D01*
X567328Y67245D01*
X567432Y67185D01*
X567533Y67121D01*
X567631Y67054D01*
X567728Y66984D01*
X567822Y66910D01*
X567914Y66834D01*
X568003Y66754D01*
X568090Y66672D01*
X568174Y66587D01*
X568255Y66499D01*
X568332Y66409D01*
X568407Y66316D01*
X568479Y66220D01*
X568548Y66122D01*
X568613Y66022D01*
X568675Y65920D01*
X568734Y65816D01*
X568789Y65710D01*
X568840Y65602D01*
X568888Y65493D01*
X568933Y65382D01*
X568973Y65270D01*
X569010Y65156D01*
X569043Y65041D01*
X569073Y64926D01*
X569098Y64809D01*
X569120Y64692D01*
X569137Y64573D01*
X569151Y64455D01*
X569161Y64336D01*
X569167Y64216D01*
X569169Y64097D01*
X569170Y64097D02*
X569170Y60484D01*
X569169Y60484D02*
X569167Y60365D01*
X569161Y60245D01*
X569151Y60126D01*
X569137Y60008D01*
X569120Y59889D01*
X569098Y59772D01*
X569073Y59655D01*
X569043Y59540D01*
X569010Y59425D01*
X568973Y59311D01*
X568933Y59199D01*
X568888Y59088D01*
X568840Y58979D01*
X568789Y58871D01*
X568734Y58765D01*
X568675Y58661D01*
X568613Y58559D01*
X568548Y58459D01*
X568479Y58361D01*
X568407Y58265D01*
X568332Y58172D01*
X568255Y58082D01*
X568174Y57994D01*
X568090Y57909D01*
X568003Y57827D01*
X567914Y57747D01*
X567822Y57671D01*
X567728Y57597D01*
X567631Y57527D01*
X567533Y57460D01*
X567432Y57396D01*
X567328Y57336D01*
X567223Y57279D01*
X567116Y57226D01*
X567008Y57176D01*
X566898Y57130D01*
X566786Y57088D01*
X566673Y57049D01*
X566559Y57014D01*
X566444Y56983D01*
X566327Y56955D01*
X566210Y56932D01*
X566093Y56912D01*
X565974Y56896D01*
X565855Y56884D01*
X565736Y56876D01*
X565617Y56872D01*
X565497Y56872D01*
X565378Y56876D01*
X565259Y56884D01*
X565140Y56896D01*
X565021Y56912D01*
X564904Y56932D01*
X564787Y56955D01*
X564670Y56983D01*
X564555Y57014D01*
X564441Y57049D01*
X564328Y57088D01*
X564216Y57130D01*
X564106Y57176D01*
X563998Y57226D01*
X563891Y57279D01*
X563786Y57336D01*
X563682Y57396D01*
X563581Y57460D01*
X563483Y57527D01*
X563386Y57597D01*
X563292Y57671D01*
X563200Y57747D01*
X563111Y57827D01*
X563024Y57909D01*
X562940Y57994D01*
X562859Y58082D01*
X562782Y58172D01*
X562707Y58265D01*
X562635Y58361D01*
X562566Y58459D01*
X562501Y58559D01*
X562439Y58661D01*
X562380Y58765D01*
X562325Y58871D01*
X562274Y58979D01*
X562226Y59088D01*
X562181Y59199D01*
X562141Y59311D01*
X562104Y59425D01*
X562071Y59540D01*
X562041Y59655D01*
X562016Y59772D01*
X561994Y59889D01*
X561977Y60008D01*
X561963Y60126D01*
X561953Y60245D01*
X561947Y60365D01*
X561945Y60484D01*
X576013Y56872D02*
X576013Y67709D01*
X580529Y67709D01*
X580633Y67707D01*
X580736Y67701D01*
X580840Y67691D01*
X580943Y67677D01*
X581045Y67659D01*
X581146Y67638D01*
X581247Y67612D01*
X581346Y67583D01*
X581445Y67550D01*
X581542Y67513D01*
X581637Y67472D01*
X581731Y67428D01*
X581823Y67380D01*
X581913Y67329D01*
X582002Y67274D01*
X582088Y67216D01*
X582171Y67154D01*
X582253Y67090D01*
X582331Y67022D01*
X582407Y66952D01*
X582481Y66879D01*
X582551Y66802D01*
X582619Y66724D01*
X582683Y66642D01*
X582745Y66559D01*
X582803Y66473D01*
X582858Y66384D01*
X582909Y66294D01*
X582957Y66202D01*
X583001Y66108D01*
X583042Y66013D01*
X583079Y65916D01*
X583112Y65817D01*
X583141Y65718D01*
X583167Y65617D01*
X583188Y65516D01*
X583206Y65414D01*
X583220Y65311D01*
X583230Y65207D01*
X583236Y65104D01*
X583238Y65000D01*
X583238Y56872D01*
X514148Y85872D02*
X514148Y102128D01*
X518664Y102128D01*
X518795Y102126D01*
X518927Y102120D01*
X519058Y102111D01*
X519188Y102097D01*
X519319Y102080D01*
X519448Y102059D01*
X519577Y102035D01*
X519705Y102006D01*
X519833Y101974D01*
X519959Y101938D01*
X520084Y101899D01*
X520209Y101856D01*
X520331Y101809D01*
X520453Y101759D01*
X520573Y101705D01*
X520691Y101648D01*
X520807Y101587D01*
X520922Y101523D01*
X521035Y101456D01*
X521146Y101385D01*
X521254Y101311D01*
X521361Y101234D01*
X521465Y101154D01*
X521567Y101071D01*
X521666Y100986D01*
X521763Y100897D01*
X521857Y100805D01*
X521949Y100711D01*
X522038Y100614D01*
X522123Y100515D01*
X522206Y100413D01*
X522286Y100309D01*
X522363Y100202D01*
X522437Y100094D01*
X522508Y99983D01*
X522575Y99870D01*
X522639Y99755D01*
X522700Y99639D01*
X522757Y99521D01*
X522811Y99401D01*
X522861Y99279D01*
X522908Y99157D01*
X522951Y99032D01*
X522990Y98907D01*
X523026Y98781D01*
X523058Y98653D01*
X523087Y98525D01*
X523111Y98396D01*
X523132Y98267D01*
X523149Y98136D01*
X523163Y98006D01*
X523172Y97875D01*
X523178Y97743D01*
X523180Y97612D01*
X523179Y97612D02*
X523179Y90388D01*
X523180Y90388D02*
X523178Y90257D01*
X523172Y90125D01*
X523163Y89994D01*
X523149Y89864D01*
X523132Y89733D01*
X523111Y89604D01*
X523087Y89475D01*
X523058Y89347D01*
X523026Y89219D01*
X522990Y89093D01*
X522951Y88968D01*
X522908Y88843D01*
X522861Y88721D01*
X522811Y88599D01*
X522757Y88479D01*
X522700Y88361D01*
X522639Y88245D01*
X522575Y88130D01*
X522508Y88017D01*
X522437Y87906D01*
X522363Y87798D01*
X522286Y87691D01*
X522206Y87587D01*
X522123Y87485D01*
X522038Y87386D01*
X521949Y87289D01*
X521857Y87195D01*
X521763Y87103D01*
X521666Y87014D01*
X521567Y86929D01*
X521465Y86846D01*
X521361Y86766D01*
X521254Y86689D01*
X521146Y86615D01*
X521035Y86544D01*
X520922Y86477D01*
X520807Y86413D01*
X520691Y86352D01*
X520573Y86295D01*
X520453Y86241D01*
X520331Y86191D01*
X520209Y86144D01*
X520084Y86101D01*
X519959Y86062D01*
X519833Y86026D01*
X519705Y85994D01*
X519577Y85965D01*
X519448Y85941D01*
X519318Y85920D01*
X519188Y85903D01*
X519058Y85889D01*
X518927Y85880D01*
X518795Y85874D01*
X518664Y85872D01*
X514148Y85872D01*
X530127Y85872D02*
X530127Y96709D01*
X529675Y101225D02*
X529675Y102128D01*
X530578Y102128D01*
X530578Y101225D01*
X529675Y101225D01*
X537769Y92194D02*
X542284Y90388D01*
X537768Y92194D02*
X537680Y92231D01*
X537594Y92272D01*
X537509Y92316D01*
X537426Y92364D01*
X537346Y92415D01*
X537267Y92469D01*
X537191Y92527D01*
X537117Y92587D01*
X537045Y92651D01*
X536977Y92717D01*
X536911Y92787D01*
X536848Y92858D01*
X536787Y92933D01*
X536730Y93009D01*
X536677Y93088D01*
X536626Y93169D01*
X536579Y93252D01*
X536535Y93337D01*
X536495Y93424D01*
X536458Y93512D01*
X536425Y93602D01*
X536395Y93693D01*
X536370Y93785D01*
X536348Y93878D01*
X536330Y93972D01*
X536315Y94066D01*
X536305Y94161D01*
X536299Y94257D01*
X536296Y94352D01*
X536297Y94448D01*
X536303Y94543D01*
X536312Y94639D01*
X536325Y94733D01*
X536341Y94827D01*
X536362Y94921D01*
X536387Y95013D01*
X536415Y95104D01*
X536447Y95194D01*
X536482Y95283D01*
X536521Y95370D01*
X536564Y95456D01*
X536610Y95540D01*
X536660Y95621D01*
X536712Y95701D01*
X536768Y95779D01*
X536828Y95854D01*
X536890Y95926D01*
X536955Y95996D01*
X537023Y96064D01*
X537093Y96128D01*
X537166Y96190D01*
X537242Y96248D01*
X537320Y96304D01*
X537400Y96356D01*
X537482Y96405D01*
X537566Y96450D01*
X537652Y96492D01*
X537739Y96531D01*
X537828Y96566D01*
X537919Y96597D01*
X538010Y96624D01*
X538103Y96648D01*
X538196Y96668D01*
X538290Y96684D01*
X538385Y96696D01*
X538480Y96705D01*
X538576Y96709D01*
X538671Y96710D01*
X538918Y96703D01*
X539164Y96691D01*
X539410Y96673D01*
X539656Y96648D01*
X539900Y96618D01*
X540144Y96582D01*
X540387Y96541D01*
X540629Y96493D01*
X540870Y96439D01*
X541109Y96380D01*
X541347Y96315D01*
X541583Y96244D01*
X541818Y96168D01*
X542051Y96086D01*
X542281Y95998D01*
X542509Y95905D01*
X542736Y95807D01*
X542285Y90387D02*
X542373Y90350D01*
X542459Y90309D01*
X542544Y90265D01*
X542627Y90217D01*
X542707Y90166D01*
X542786Y90112D01*
X542862Y90054D01*
X542936Y89994D01*
X543008Y89930D01*
X543076Y89864D01*
X543142Y89794D01*
X543205Y89723D01*
X543266Y89648D01*
X543323Y89572D01*
X543376Y89493D01*
X543427Y89412D01*
X543474Y89329D01*
X543518Y89244D01*
X543558Y89157D01*
X543595Y89069D01*
X543628Y88979D01*
X543658Y88888D01*
X543683Y88796D01*
X543705Y88703D01*
X543723Y88609D01*
X543738Y88515D01*
X543748Y88420D01*
X543754Y88324D01*
X543757Y88229D01*
X543756Y88133D01*
X543750Y88038D01*
X543741Y87942D01*
X543728Y87848D01*
X543712Y87754D01*
X543691Y87660D01*
X543666Y87568D01*
X543638Y87477D01*
X543606Y87387D01*
X543571Y87298D01*
X543532Y87211D01*
X543489Y87125D01*
X543443Y87041D01*
X543393Y86960D01*
X543341Y86880D01*
X543285Y86802D01*
X543225Y86727D01*
X543163Y86655D01*
X543098Y86585D01*
X543030Y86517D01*
X542960Y86453D01*
X542887Y86391D01*
X542811Y86333D01*
X542733Y86277D01*
X542653Y86225D01*
X542571Y86176D01*
X542487Y86131D01*
X542401Y86089D01*
X542314Y86050D01*
X542225Y86015D01*
X542134Y85984D01*
X542043Y85957D01*
X541950Y85933D01*
X541857Y85913D01*
X541763Y85897D01*
X541668Y85885D01*
X541573Y85876D01*
X541477Y85872D01*
X541382Y85871D01*
X541381Y85872D02*
X541019Y85881D01*
X540657Y85899D01*
X540296Y85926D01*
X539936Y85961D01*
X539576Y86004D01*
X539217Y86056D01*
X538860Y86117D01*
X538505Y86186D01*
X538151Y86263D01*
X537799Y86349D01*
X537449Y86443D01*
X537101Y86546D01*
X536756Y86656D01*
X536414Y86775D01*
X552688Y85872D02*
X556300Y85872D01*
X552688Y85872D02*
X552587Y85874D01*
X552486Y85880D01*
X552385Y85889D01*
X552284Y85902D01*
X552184Y85919D01*
X552085Y85940D01*
X551987Y85964D01*
X551890Y85992D01*
X551793Y86024D01*
X551698Y86059D01*
X551605Y86098D01*
X551513Y86140D01*
X551422Y86186D01*
X551334Y86235D01*
X551247Y86287D01*
X551162Y86343D01*
X551079Y86401D01*
X550999Y86463D01*
X550921Y86528D01*
X550845Y86595D01*
X550772Y86665D01*
X550702Y86738D01*
X550635Y86814D01*
X550570Y86892D01*
X550508Y86972D01*
X550450Y87055D01*
X550394Y87140D01*
X550342Y87227D01*
X550293Y87315D01*
X550247Y87406D01*
X550205Y87498D01*
X550166Y87591D01*
X550131Y87686D01*
X550099Y87783D01*
X550071Y87880D01*
X550047Y87978D01*
X550026Y88077D01*
X550009Y88177D01*
X549996Y88278D01*
X549987Y88379D01*
X549981Y88480D01*
X549979Y88581D01*
X549979Y94000D01*
X549981Y94101D01*
X549987Y94202D01*
X549996Y94303D01*
X550009Y94404D01*
X550026Y94504D01*
X550047Y94603D01*
X550071Y94701D01*
X550099Y94798D01*
X550131Y94895D01*
X550166Y94990D01*
X550205Y95083D01*
X550247Y95175D01*
X550293Y95266D01*
X550342Y95355D01*
X550394Y95441D01*
X550450Y95526D01*
X550508Y95609D01*
X550570Y95689D01*
X550635Y95767D01*
X550702Y95843D01*
X550772Y95916D01*
X550845Y95986D01*
X550921Y96053D01*
X550999Y96118D01*
X551079Y96180D01*
X551162Y96238D01*
X551247Y96294D01*
X551334Y96346D01*
X551422Y96395D01*
X551513Y96441D01*
X551605Y96483D01*
X551698Y96522D01*
X551793Y96557D01*
X551890Y96589D01*
X551987Y96617D01*
X552085Y96641D01*
X552184Y96662D01*
X552284Y96679D01*
X552385Y96692D01*
X552486Y96701D01*
X552587Y96707D01*
X552688Y96709D01*
X556300Y96709D01*
X561945Y93097D02*
X561945Y89484D01*
X561945Y93097D02*
X561947Y93216D01*
X561953Y93336D01*
X561963Y93455D01*
X561977Y93573D01*
X561994Y93692D01*
X562016Y93809D01*
X562041Y93926D01*
X562071Y94041D01*
X562104Y94156D01*
X562141Y94270D01*
X562181Y94382D01*
X562226Y94493D01*
X562274Y94602D01*
X562325Y94710D01*
X562380Y94816D01*
X562439Y94920D01*
X562501Y95022D01*
X562566Y95122D01*
X562635Y95220D01*
X562707Y95316D01*
X562782Y95409D01*
X562859Y95499D01*
X562940Y95587D01*
X563024Y95672D01*
X563111Y95754D01*
X563200Y95834D01*
X563292Y95910D01*
X563386Y95984D01*
X563483Y96054D01*
X563581Y96121D01*
X563682Y96185D01*
X563786Y96245D01*
X563891Y96302D01*
X563998Y96355D01*
X564106Y96405D01*
X564216Y96451D01*
X564328Y96493D01*
X564441Y96532D01*
X564555Y96567D01*
X564670Y96598D01*
X564787Y96626D01*
X564904Y96649D01*
X565021Y96669D01*
X565140Y96685D01*
X565259Y96697D01*
X565378Y96705D01*
X565497Y96709D01*
X565617Y96709D01*
X565736Y96705D01*
X565855Y96697D01*
X565974Y96685D01*
X566093Y96669D01*
X566210Y96649D01*
X566327Y96626D01*
X566444Y96598D01*
X566559Y96567D01*
X566673Y96532D01*
X566786Y96493D01*
X566898Y96451D01*
X567008Y96405D01*
X567116Y96355D01*
X567223Y96302D01*
X567328Y96245D01*
X567432Y96185D01*
X567533Y96121D01*
X567631Y96054D01*
X567728Y95984D01*
X567822Y95910D01*
X567914Y95834D01*
X568003Y95754D01*
X568090Y95672D01*
X568174Y95587D01*
X568255Y95499D01*
X568332Y95409D01*
X568407Y95316D01*
X568479Y95220D01*
X568548Y95122D01*
X568613Y95022D01*
X568675Y94920D01*
X568734Y94816D01*
X568789Y94710D01*
X568840Y94602D01*
X568888Y94493D01*
X568933Y94382D01*
X568973Y94270D01*
X569010Y94156D01*
X569043Y94041D01*
X569073Y93926D01*
X569098Y93809D01*
X569120Y93692D01*
X569137Y93573D01*
X569151Y93455D01*
X569161Y93336D01*
X569167Y93216D01*
X569169Y93097D01*
X569170Y93097D02*
X569170Y89484D01*
X569169Y89484D02*
X569167Y89365D01*
X569161Y89245D01*
X569151Y89126D01*
X569137Y89008D01*
X569120Y88889D01*
X569098Y88772D01*
X569073Y88655D01*
X569043Y88540D01*
X569010Y88425D01*
X568973Y88311D01*
X568933Y88199D01*
X568888Y88088D01*
X568840Y87979D01*
X568789Y87871D01*
X568734Y87765D01*
X568675Y87661D01*
X568613Y87559D01*
X568548Y87459D01*
X568479Y87361D01*
X568407Y87265D01*
X568332Y87172D01*
X568255Y87082D01*
X568174Y86994D01*
X568090Y86909D01*
X568003Y86827D01*
X567914Y86747D01*
X567822Y86671D01*
X567728Y86597D01*
X567631Y86527D01*
X567533Y86460D01*
X567432Y86396D01*
X567328Y86336D01*
X567223Y86279D01*
X567116Y86226D01*
X567008Y86176D01*
X566898Y86130D01*
X566786Y86088D01*
X566673Y86049D01*
X566559Y86014D01*
X566444Y85983D01*
X566327Y85955D01*
X566210Y85932D01*
X566093Y85912D01*
X565974Y85896D01*
X565855Y85884D01*
X565736Y85876D01*
X565617Y85872D01*
X565497Y85872D01*
X565378Y85876D01*
X565259Y85884D01*
X565140Y85896D01*
X565021Y85912D01*
X564904Y85932D01*
X564787Y85955D01*
X564670Y85983D01*
X564555Y86014D01*
X564441Y86049D01*
X564328Y86088D01*
X564216Y86130D01*
X564106Y86176D01*
X563998Y86226D01*
X563891Y86279D01*
X563786Y86336D01*
X563682Y86396D01*
X563581Y86460D01*
X563483Y86527D01*
X563386Y86597D01*
X563292Y86671D01*
X563200Y86747D01*
X563111Y86827D01*
X563024Y86909D01*
X562940Y86994D01*
X562859Y87082D01*
X562782Y87172D01*
X562707Y87265D01*
X562635Y87361D01*
X562566Y87459D01*
X562501Y87559D01*
X562439Y87661D01*
X562380Y87765D01*
X562325Y87871D01*
X562274Y87979D01*
X562226Y88088D01*
X562181Y88199D01*
X562141Y88311D01*
X562104Y88425D01*
X562071Y88540D01*
X562041Y88655D01*
X562016Y88772D01*
X561994Y88889D01*
X561977Y89008D01*
X561963Y89126D01*
X561953Y89245D01*
X561947Y89365D01*
X561945Y89484D01*
X576013Y85872D02*
X576013Y96709D01*
X580529Y96709D01*
X580633Y96707D01*
X580736Y96701D01*
X580840Y96691D01*
X580943Y96677D01*
X581045Y96659D01*
X581146Y96638D01*
X581247Y96612D01*
X581346Y96583D01*
X581445Y96550D01*
X581542Y96513D01*
X581637Y96472D01*
X581731Y96428D01*
X581823Y96380D01*
X581913Y96329D01*
X582002Y96274D01*
X582088Y96216D01*
X582171Y96154D01*
X582253Y96090D01*
X582331Y96022D01*
X582407Y95952D01*
X582481Y95879D01*
X582551Y95802D01*
X582619Y95724D01*
X582683Y95642D01*
X582745Y95559D01*
X582803Y95473D01*
X582858Y95384D01*
X582909Y95294D01*
X582957Y95202D01*
X583001Y95108D01*
X583042Y95013D01*
X583079Y94916D01*
X583112Y94817D01*
X583141Y94718D01*
X583167Y94617D01*
X583188Y94516D01*
X583206Y94414D01*
X583220Y94311D01*
X583230Y94207D01*
X583236Y94104D01*
X583238Y94000D01*
X583238Y85872D01*
D11*
X427528Y68404D02*
X427526Y68305D01*
X427520Y68205D01*
X427511Y68106D01*
X427498Y68008D01*
X427481Y67910D01*
X427460Y67812D01*
X427435Y67716D01*
X427407Y67621D01*
X427375Y67527D01*
X427340Y67434D01*
X427301Y67342D01*
X427258Y67252D01*
X427213Y67164D01*
X427163Y67077D01*
X427111Y66993D01*
X427055Y66910D01*
X426997Y66830D01*
X426935Y66752D01*
X426870Y66677D01*
X426802Y66604D01*
X426732Y66534D01*
X426659Y66466D01*
X426584Y66401D01*
X426506Y66339D01*
X426426Y66281D01*
X426343Y66225D01*
X426259Y66173D01*
X426172Y66123D01*
X426084Y66078D01*
X425994Y66035D01*
X425902Y65996D01*
X425809Y65961D01*
X425715Y65929D01*
X425620Y65901D01*
X425524Y65876D01*
X425426Y65855D01*
X425328Y65838D01*
X425230Y65825D01*
X425131Y65816D01*
X425031Y65810D01*
X424932Y65808D01*
X424788Y65810D01*
X424643Y65816D01*
X424499Y65825D01*
X424356Y65838D01*
X424212Y65855D01*
X424069Y65876D01*
X423927Y65901D01*
X423786Y65929D01*
X423645Y65961D01*
X423505Y65997D01*
X423366Y66036D01*
X423228Y66079D01*
X423092Y66126D01*
X422956Y66176D01*
X422822Y66230D01*
X422690Y66287D01*
X422559Y66348D01*
X422430Y66412D01*
X422302Y66480D01*
X422176Y66550D01*
X422052Y66625D01*
X421931Y66702D01*
X421811Y66783D01*
X421693Y66866D01*
X421578Y66953D01*
X421465Y67043D01*
X421354Y67136D01*
X421246Y67231D01*
X421140Y67330D01*
X421037Y67431D01*
X421362Y74896D02*
X421364Y74995D01*
X421370Y75095D01*
X421379Y75194D01*
X421392Y75292D01*
X421409Y75390D01*
X421430Y75488D01*
X421455Y75584D01*
X421483Y75679D01*
X421515Y75773D01*
X421550Y75866D01*
X421589Y75958D01*
X421632Y76048D01*
X421677Y76136D01*
X421727Y76223D01*
X421779Y76307D01*
X421835Y76390D01*
X421893Y76470D01*
X421955Y76548D01*
X422020Y76623D01*
X422088Y76696D01*
X422158Y76766D01*
X422231Y76834D01*
X422306Y76899D01*
X422384Y76961D01*
X422464Y77019D01*
X422547Y77075D01*
X422631Y77127D01*
X422718Y77177D01*
X422806Y77222D01*
X422896Y77265D01*
X422988Y77304D01*
X423081Y77339D01*
X423175Y77371D01*
X423270Y77399D01*
X423367Y77424D01*
X423464Y77445D01*
X423562Y77462D01*
X423660Y77475D01*
X423759Y77484D01*
X423859Y77490D01*
X423958Y77492D01*
X424094Y77490D01*
X424230Y77484D01*
X424366Y77475D01*
X424502Y77462D01*
X424637Y77444D01*
X424771Y77424D01*
X424905Y77399D01*
X425039Y77371D01*
X425171Y77338D01*
X425302Y77303D01*
X425433Y77263D01*
X425562Y77220D01*
X425690Y77174D01*
X425816Y77123D01*
X425942Y77070D01*
X426065Y77012D01*
X426187Y76952D01*
X426307Y76888D01*
X426426Y76820D01*
X426542Y76750D01*
X426656Y76676D01*
X426769Y76599D01*
X426879Y76518D01*
X422660Y72624D02*
X422574Y72677D01*
X422490Y72734D01*
X422408Y72793D01*
X422328Y72856D01*
X422251Y72922D01*
X422176Y72990D01*
X422104Y73062D01*
X422035Y73136D01*
X421969Y73213D01*
X421906Y73292D01*
X421846Y73374D01*
X421789Y73458D01*
X421735Y73544D01*
X421685Y73632D01*
X421638Y73722D01*
X421594Y73813D01*
X421555Y73907D01*
X421518Y74001D01*
X421486Y74097D01*
X421457Y74195D01*
X421432Y74293D01*
X421411Y74392D01*
X421393Y74492D01*
X421380Y74592D01*
X421370Y74693D01*
X421364Y74795D01*
X421362Y74896D01*
X426231Y70676D02*
X426317Y70623D01*
X426401Y70566D01*
X426483Y70507D01*
X426563Y70444D01*
X426640Y70378D01*
X426715Y70310D01*
X426787Y70238D01*
X426856Y70164D01*
X426922Y70087D01*
X426985Y70008D01*
X427045Y69926D01*
X427102Y69842D01*
X427156Y69756D01*
X427206Y69668D01*
X427253Y69578D01*
X427297Y69487D01*
X427336Y69393D01*
X427373Y69299D01*
X427405Y69203D01*
X427434Y69105D01*
X427459Y69007D01*
X427480Y68908D01*
X427498Y68808D01*
X427511Y68708D01*
X427521Y68607D01*
X427527Y68505D01*
X427529Y68404D01*
X426230Y70676D02*
X422660Y72624D01*
X434570Y77492D02*
X434570Y65808D01*
X431324Y77492D02*
X437816Y77492D01*
X445238Y77492D02*
X441343Y65808D01*
X449133Y65808D02*
X445238Y77492D01*
X448159Y68729D02*
X442317Y68729D01*
X453877Y65808D02*
X453877Y77492D01*
X457123Y77492D01*
X457236Y77490D01*
X457349Y77484D01*
X457462Y77474D01*
X457575Y77460D01*
X457687Y77443D01*
X457798Y77421D01*
X457908Y77396D01*
X458018Y77366D01*
X458126Y77333D01*
X458233Y77296D01*
X458339Y77256D01*
X458443Y77211D01*
X458546Y77163D01*
X458647Y77112D01*
X458746Y77057D01*
X458843Y76999D01*
X458938Y76937D01*
X459031Y76872D01*
X459121Y76804D01*
X459209Y76733D01*
X459295Y76658D01*
X459378Y76581D01*
X459458Y76501D01*
X459535Y76418D01*
X459610Y76332D01*
X459681Y76244D01*
X459749Y76154D01*
X459814Y76061D01*
X459876Y75966D01*
X459934Y75869D01*
X459989Y75770D01*
X460040Y75669D01*
X460088Y75566D01*
X460133Y75462D01*
X460173Y75356D01*
X460210Y75249D01*
X460243Y75141D01*
X460273Y75031D01*
X460298Y74921D01*
X460320Y74810D01*
X460337Y74698D01*
X460351Y74585D01*
X460361Y74472D01*
X460367Y74359D01*
X460369Y74246D01*
X460367Y74133D01*
X460361Y74020D01*
X460351Y73907D01*
X460337Y73794D01*
X460320Y73682D01*
X460298Y73571D01*
X460273Y73461D01*
X460243Y73351D01*
X460210Y73243D01*
X460173Y73136D01*
X460133Y73030D01*
X460088Y72926D01*
X460040Y72823D01*
X459989Y72722D01*
X459934Y72623D01*
X459876Y72526D01*
X459814Y72431D01*
X459749Y72338D01*
X459681Y72248D01*
X459610Y72160D01*
X459535Y72074D01*
X459458Y71991D01*
X459378Y71911D01*
X459295Y71834D01*
X459209Y71759D01*
X459121Y71688D01*
X459031Y71620D01*
X458938Y71555D01*
X458843Y71493D01*
X458746Y71435D01*
X458647Y71380D01*
X458546Y71329D01*
X458443Y71281D01*
X458339Y71236D01*
X458233Y71196D01*
X458126Y71159D01*
X458018Y71126D01*
X457908Y71096D01*
X457798Y71071D01*
X457687Y71049D01*
X457575Y71032D01*
X457462Y71018D01*
X457349Y71008D01*
X457236Y71002D01*
X457123Y71000D01*
X457123Y71001D02*
X453877Y71001D01*
X457772Y71001D02*
X460368Y65808D01*
X467717Y65808D02*
X467717Y77492D01*
X464471Y77492D02*
X470963Y77492D01*
D12*
X591500Y24000D02*
X591500Y146000D01*
X591500Y24000D02*
X601000Y24000D01*
X625000Y24000D02*
X634500Y24000D01*
X634500Y146000D01*
X625000Y146000D01*
X601000Y146000D02*
X591500Y146000D01*
D11*
X588884Y159158D02*
X588983Y159160D01*
X589083Y159166D01*
X589182Y159175D01*
X589280Y159188D01*
X589378Y159205D01*
X589476Y159226D01*
X589572Y159251D01*
X589667Y159279D01*
X589761Y159311D01*
X589854Y159346D01*
X589946Y159385D01*
X590036Y159428D01*
X590124Y159473D01*
X590211Y159523D01*
X590295Y159575D01*
X590378Y159631D01*
X590458Y159689D01*
X590536Y159751D01*
X590611Y159816D01*
X590684Y159884D01*
X590754Y159954D01*
X590822Y160027D01*
X590887Y160102D01*
X590949Y160180D01*
X591007Y160260D01*
X591063Y160343D01*
X591115Y160427D01*
X591165Y160514D01*
X591210Y160602D01*
X591253Y160692D01*
X591292Y160784D01*
X591327Y160877D01*
X591359Y160971D01*
X591387Y161066D01*
X591412Y161162D01*
X591433Y161260D01*
X591450Y161358D01*
X591463Y161456D01*
X591472Y161555D01*
X591478Y161655D01*
X591480Y161754D01*
X588884Y159158D02*
X588740Y159160D01*
X588595Y159166D01*
X588451Y159175D01*
X588308Y159188D01*
X588164Y159205D01*
X588021Y159226D01*
X587879Y159251D01*
X587738Y159279D01*
X587597Y159311D01*
X587457Y159347D01*
X587318Y159386D01*
X587180Y159429D01*
X587044Y159476D01*
X586908Y159526D01*
X586774Y159580D01*
X586642Y159637D01*
X586511Y159698D01*
X586382Y159762D01*
X586254Y159830D01*
X586128Y159900D01*
X586004Y159975D01*
X585883Y160052D01*
X585763Y160133D01*
X585645Y160216D01*
X585530Y160303D01*
X585417Y160393D01*
X585306Y160486D01*
X585198Y160581D01*
X585092Y160680D01*
X584989Y160781D01*
X585314Y168246D02*
X585316Y168345D01*
X585322Y168445D01*
X585331Y168544D01*
X585344Y168642D01*
X585361Y168740D01*
X585382Y168838D01*
X585407Y168934D01*
X585435Y169029D01*
X585467Y169123D01*
X585502Y169216D01*
X585541Y169308D01*
X585584Y169398D01*
X585629Y169486D01*
X585679Y169573D01*
X585731Y169657D01*
X585787Y169740D01*
X585845Y169820D01*
X585907Y169898D01*
X585972Y169973D01*
X586040Y170046D01*
X586110Y170116D01*
X586183Y170184D01*
X586258Y170249D01*
X586336Y170311D01*
X586416Y170369D01*
X586499Y170425D01*
X586583Y170477D01*
X586670Y170527D01*
X586758Y170572D01*
X586848Y170615D01*
X586940Y170654D01*
X587033Y170689D01*
X587127Y170721D01*
X587222Y170749D01*
X587319Y170774D01*
X587416Y170795D01*
X587514Y170812D01*
X587612Y170825D01*
X587711Y170834D01*
X587811Y170840D01*
X587910Y170842D01*
X588046Y170840D01*
X588182Y170834D01*
X588318Y170825D01*
X588454Y170812D01*
X588589Y170794D01*
X588723Y170774D01*
X588857Y170749D01*
X588991Y170721D01*
X589123Y170688D01*
X589254Y170653D01*
X589385Y170613D01*
X589514Y170570D01*
X589642Y170524D01*
X589768Y170473D01*
X589894Y170420D01*
X590017Y170362D01*
X590139Y170302D01*
X590259Y170238D01*
X590378Y170170D01*
X590494Y170100D01*
X590608Y170026D01*
X590721Y169949D01*
X590831Y169868D01*
X586612Y165974D02*
X586526Y166027D01*
X586442Y166084D01*
X586360Y166143D01*
X586280Y166206D01*
X586203Y166272D01*
X586128Y166340D01*
X586056Y166412D01*
X585987Y166486D01*
X585921Y166563D01*
X585858Y166642D01*
X585798Y166724D01*
X585741Y166808D01*
X585687Y166894D01*
X585637Y166982D01*
X585590Y167072D01*
X585546Y167163D01*
X585507Y167257D01*
X585470Y167351D01*
X585438Y167447D01*
X585409Y167545D01*
X585384Y167643D01*
X585363Y167742D01*
X585345Y167842D01*
X585332Y167942D01*
X585322Y168043D01*
X585316Y168145D01*
X585314Y168246D01*
X590183Y164026D02*
X590269Y163973D01*
X590353Y163916D01*
X590435Y163857D01*
X590515Y163794D01*
X590592Y163728D01*
X590667Y163660D01*
X590739Y163588D01*
X590808Y163514D01*
X590874Y163437D01*
X590937Y163358D01*
X590997Y163276D01*
X591054Y163192D01*
X591108Y163106D01*
X591158Y163018D01*
X591205Y162928D01*
X591249Y162837D01*
X591288Y162743D01*
X591325Y162649D01*
X591357Y162553D01*
X591386Y162455D01*
X591411Y162357D01*
X591432Y162258D01*
X591450Y162158D01*
X591463Y162058D01*
X591473Y161957D01*
X591479Y161855D01*
X591481Y161754D01*
X590182Y164026D02*
X586612Y165974D01*
X596442Y159158D02*
X601635Y159158D01*
X596442Y159158D02*
X596442Y170842D01*
X601635Y170842D01*
X600337Y165649D02*
X596442Y165649D01*
X606348Y170842D02*
X606348Y159158D01*
X611541Y159158D01*
X616254Y159158D02*
X621447Y159158D01*
X616254Y159158D02*
X616254Y170842D01*
X621447Y170842D01*
X620149Y165649D02*
X616254Y165649D01*
X628320Y159158D02*
X630916Y159158D01*
X628320Y159158D02*
X628221Y159160D01*
X628121Y159166D01*
X628022Y159175D01*
X627924Y159188D01*
X627826Y159205D01*
X627728Y159226D01*
X627632Y159251D01*
X627537Y159279D01*
X627443Y159311D01*
X627350Y159346D01*
X627258Y159385D01*
X627168Y159428D01*
X627080Y159473D01*
X626993Y159523D01*
X626909Y159575D01*
X626826Y159631D01*
X626746Y159689D01*
X626668Y159751D01*
X626593Y159816D01*
X626520Y159884D01*
X626450Y159954D01*
X626382Y160027D01*
X626317Y160102D01*
X626255Y160180D01*
X626197Y160260D01*
X626141Y160343D01*
X626089Y160427D01*
X626039Y160514D01*
X625994Y160602D01*
X625951Y160692D01*
X625912Y160784D01*
X625877Y160877D01*
X625845Y160971D01*
X625817Y161066D01*
X625792Y161162D01*
X625771Y161260D01*
X625754Y161358D01*
X625741Y161456D01*
X625732Y161555D01*
X625726Y161655D01*
X625724Y161754D01*
X625723Y161754D02*
X625723Y168246D01*
X625724Y168246D02*
X625726Y168345D01*
X625732Y168445D01*
X625741Y168544D01*
X625754Y168642D01*
X625771Y168740D01*
X625792Y168838D01*
X625817Y168934D01*
X625845Y169029D01*
X625877Y169123D01*
X625912Y169216D01*
X625951Y169308D01*
X625994Y169398D01*
X626039Y169486D01*
X626089Y169573D01*
X626141Y169657D01*
X626197Y169740D01*
X626255Y169820D01*
X626317Y169898D01*
X626382Y169973D01*
X626450Y170046D01*
X626520Y170116D01*
X626593Y170184D01*
X626668Y170249D01*
X626746Y170311D01*
X626826Y170369D01*
X626909Y170425D01*
X626993Y170477D01*
X627080Y170527D01*
X627168Y170572D01*
X627258Y170615D01*
X627350Y170654D01*
X627442Y170689D01*
X627537Y170721D01*
X627632Y170749D01*
X627728Y170774D01*
X627826Y170795D01*
X627924Y170812D01*
X628022Y170825D01*
X628121Y170834D01*
X628221Y170840D01*
X628320Y170842D01*
X630916Y170842D01*
X637765Y170842D02*
X637765Y159158D01*
X634519Y170842D02*
X641011Y170842D01*
M02*
