G04 EAGLE Gerber RS-274X export*
G75*
%MOMM*%
%FSLAX34Y34*%
%LPD*%
%INSolderpaste Bottom*%
%IPPOS*%
%AMOC8*
5,1,8,0,0,1.08239X$1,22.5*%
G01*
%ADD10R,1.000000X0.800000*%
%ADD11R,0.800000X1.000000*%
%ADD12C,0.150000*%
%ADD13R,3.200000X3.200000*%
%ADD14R,0.900000X0.500000*%
%ADD15R,1.600000X1.100000*%
%ADD16R,0.500000X0.300000*%
%ADD17R,1.000000X1.100000*%
%ADD18R,1.000000X1.400000*%
%ADD19R,0.450000X0.590000*%


D10*
X453000Y153000D03*
X469000Y153000D03*
D11*
X491000Y124000D03*
X491000Y108000D03*
X579000Y132000D03*
X579000Y148000D03*
X502000Y102000D03*
X502000Y86000D03*
D10*
X469000Y165000D03*
X453000Y165000D03*
D12*
X507750Y125750D02*
X513250Y125750D01*
X507750Y125750D02*
X507750Y127250D01*
X513250Y127250D01*
X513250Y125750D01*
X513250Y127175D02*
X507750Y127175D01*
X507750Y130750D02*
X513250Y130750D01*
X507750Y130750D02*
X507750Y132250D01*
X513250Y132250D01*
X513250Y130750D01*
X513250Y132175D02*
X507750Y132175D01*
X507750Y135750D02*
X513250Y135750D01*
X507750Y135750D02*
X507750Y137250D01*
X513250Y137250D01*
X513250Y135750D01*
X513250Y137175D02*
X507750Y137175D01*
X507750Y140750D02*
X513250Y140750D01*
X507750Y140750D02*
X507750Y142250D01*
X513250Y142250D01*
X513250Y140750D01*
X513250Y142175D02*
X507750Y142175D01*
X507750Y145750D02*
X513250Y145750D01*
X507750Y145750D02*
X507750Y147250D01*
X513250Y147250D01*
X513250Y145750D01*
X513250Y147175D02*
X507750Y147175D01*
X507750Y150750D02*
X513250Y150750D01*
X507750Y150750D02*
X507750Y152250D01*
X513250Y152250D01*
X513250Y150750D01*
X513250Y152175D02*
X507750Y152175D01*
X507750Y155750D02*
X513250Y155750D01*
X507750Y155750D02*
X507750Y157250D01*
X513250Y157250D01*
X513250Y155750D01*
X513250Y157175D02*
X507750Y157175D01*
X507750Y160750D02*
X513250Y160750D01*
X507750Y160750D02*
X507750Y162250D01*
X513250Y162250D01*
X513250Y160750D01*
X513250Y162175D02*
X507750Y162175D01*
X515750Y164750D02*
X517250Y164750D01*
X515750Y164750D02*
X515750Y170250D01*
X517250Y170250D01*
X517250Y164750D01*
X517250Y166175D02*
X515750Y166175D01*
X515750Y167600D02*
X517250Y167600D01*
X517250Y169025D02*
X515750Y169025D01*
X520750Y164750D02*
X522250Y164750D01*
X520750Y164750D02*
X520750Y170250D01*
X522250Y170250D01*
X522250Y164750D01*
X522250Y166175D02*
X520750Y166175D01*
X520750Y167600D02*
X522250Y167600D01*
X522250Y169025D02*
X520750Y169025D01*
X525750Y164750D02*
X527250Y164750D01*
X525750Y164750D02*
X525750Y170250D01*
X527250Y170250D01*
X527250Y164750D01*
X527250Y166175D02*
X525750Y166175D01*
X525750Y167600D02*
X527250Y167600D01*
X527250Y169025D02*
X525750Y169025D01*
X530750Y164750D02*
X532250Y164750D01*
X530750Y164750D02*
X530750Y170250D01*
X532250Y170250D01*
X532250Y164750D01*
X532250Y166175D02*
X530750Y166175D01*
X530750Y167600D02*
X532250Y167600D01*
X532250Y169025D02*
X530750Y169025D01*
X535750Y164750D02*
X537250Y164750D01*
X535750Y164750D02*
X535750Y170250D01*
X537250Y170250D01*
X537250Y164750D01*
X537250Y166175D02*
X535750Y166175D01*
X535750Y167600D02*
X537250Y167600D01*
X537250Y169025D02*
X535750Y169025D01*
X540750Y164750D02*
X542250Y164750D01*
X540750Y164750D02*
X540750Y170250D01*
X542250Y170250D01*
X542250Y164750D01*
X542250Y166175D02*
X540750Y166175D01*
X540750Y167600D02*
X542250Y167600D01*
X542250Y169025D02*
X540750Y169025D01*
X545750Y164750D02*
X547250Y164750D01*
X545750Y164750D02*
X545750Y170250D01*
X547250Y170250D01*
X547250Y164750D01*
X547250Y166175D02*
X545750Y166175D01*
X545750Y167600D02*
X547250Y167600D01*
X547250Y169025D02*
X545750Y169025D01*
X550750Y164750D02*
X552250Y164750D01*
X550750Y164750D02*
X550750Y170250D01*
X552250Y170250D01*
X552250Y164750D01*
X552250Y166175D02*
X550750Y166175D01*
X550750Y167600D02*
X552250Y167600D01*
X552250Y169025D02*
X550750Y169025D01*
X554750Y160750D02*
X560250Y160750D01*
X554750Y160750D02*
X554750Y162250D01*
X560250Y162250D01*
X560250Y160750D01*
X560250Y162175D02*
X554750Y162175D01*
X554750Y155750D02*
X560250Y155750D01*
X554750Y155750D02*
X554750Y157250D01*
X560250Y157250D01*
X560250Y155750D01*
X560250Y157175D02*
X554750Y157175D01*
X554750Y150750D02*
X560250Y150750D01*
X554750Y150750D02*
X554750Y152250D01*
X560250Y152250D01*
X560250Y150750D01*
X560250Y152175D02*
X554750Y152175D01*
X554750Y145750D02*
X560250Y145750D01*
X554750Y145750D02*
X554750Y147250D01*
X560250Y147250D01*
X560250Y145750D01*
X560250Y147175D02*
X554750Y147175D01*
X554750Y140750D02*
X560250Y140750D01*
X554750Y140750D02*
X554750Y142250D01*
X560250Y142250D01*
X560250Y140750D01*
X560250Y142175D02*
X554750Y142175D01*
X554750Y135750D02*
X560250Y135750D01*
X554750Y135750D02*
X554750Y137250D01*
X560250Y137250D01*
X560250Y135750D01*
X560250Y137175D02*
X554750Y137175D01*
X554750Y130750D02*
X560250Y130750D01*
X554750Y130750D02*
X554750Y132250D01*
X560250Y132250D01*
X560250Y130750D01*
X560250Y132175D02*
X554750Y132175D01*
X554750Y125750D02*
X560250Y125750D01*
X554750Y125750D02*
X554750Y127250D01*
X560250Y127250D01*
X560250Y125750D01*
X560250Y127175D02*
X554750Y127175D01*
X552250Y117750D02*
X550750Y117750D01*
X550750Y123250D01*
X552250Y123250D01*
X552250Y117750D01*
X552250Y119175D02*
X550750Y119175D01*
X550750Y120600D02*
X552250Y120600D01*
X552250Y122025D02*
X550750Y122025D01*
X547250Y117750D02*
X545750Y117750D01*
X545750Y123250D01*
X547250Y123250D01*
X547250Y117750D01*
X547250Y119175D02*
X545750Y119175D01*
X545750Y120600D02*
X547250Y120600D01*
X547250Y122025D02*
X545750Y122025D01*
X542250Y117750D02*
X540750Y117750D01*
X540750Y123250D01*
X542250Y123250D01*
X542250Y117750D01*
X542250Y119175D02*
X540750Y119175D01*
X540750Y120600D02*
X542250Y120600D01*
X542250Y122025D02*
X540750Y122025D01*
X537250Y117750D02*
X535750Y117750D01*
X535750Y123250D01*
X537250Y123250D01*
X537250Y117750D01*
X537250Y119175D02*
X535750Y119175D01*
X535750Y120600D02*
X537250Y120600D01*
X537250Y122025D02*
X535750Y122025D01*
X532250Y117750D02*
X530750Y117750D01*
X530750Y123250D01*
X532250Y123250D01*
X532250Y117750D01*
X532250Y119175D02*
X530750Y119175D01*
X530750Y120600D02*
X532250Y120600D01*
X532250Y122025D02*
X530750Y122025D01*
X527250Y117750D02*
X525750Y117750D01*
X525750Y123250D01*
X527250Y123250D01*
X527250Y117750D01*
X527250Y119175D02*
X525750Y119175D01*
X525750Y120600D02*
X527250Y120600D01*
X527250Y122025D02*
X525750Y122025D01*
X522250Y117750D02*
X520750Y117750D01*
X520750Y123250D01*
X522250Y123250D01*
X522250Y117750D01*
X522250Y119175D02*
X520750Y119175D01*
X520750Y120600D02*
X522250Y120600D01*
X522250Y122025D02*
X520750Y122025D01*
X517250Y117750D02*
X515750Y117750D01*
X515750Y123250D01*
X517250Y123250D01*
X517250Y117750D01*
X517250Y119175D02*
X515750Y119175D01*
X515750Y120600D02*
X517250Y120600D01*
X517250Y122025D02*
X515750Y122025D01*
D13*
X534000Y144000D03*
D14*
X531000Y68000D03*
X531000Y76000D03*
X531000Y84000D03*
X531000Y92000D03*
X547000Y92000D03*
X547000Y84000D03*
X547000Y76000D03*
X547000Y68000D03*
D15*
X486000Y175500D03*
X486000Y142500D03*
D16*
X517000Y77000D03*
X517000Y72000D03*
X517000Y67000D03*
X503000Y67000D03*
X503000Y72000D03*
X503000Y77000D03*
D17*
X471500Y74000D03*
X488500Y74000D03*
D18*
X479000Y111000D03*
X469500Y89000D03*
X488500Y89000D03*
D19*
X457000Y71450D03*
X457000Y92550D03*
M02*
