G04 EAGLE Gerber RS-274X export*
G75*
%MOMM*%
%FSLAX34Y34*%
%LPD*%
%INSilkscreen Bottom*%
%IPPOS*%
%AMOC8*
5,1,8,0,0,1.08239X$1,22.5*%
G01*
%ADD10C,0.203200*%
%ADD11C,0.200000*%
%ADD12C,0.101600*%
%ADD13C,0.100000*%
%ADD14C,0.127000*%


D10*
X456443Y138016D02*
X458213Y138016D01*
X458295Y138018D01*
X458376Y138024D01*
X458458Y138033D01*
X458538Y138046D01*
X458618Y138063D01*
X458698Y138084D01*
X458776Y138108D01*
X458853Y138136D01*
X458928Y138167D01*
X459002Y138202D01*
X459075Y138240D01*
X459145Y138281D01*
X459214Y138326D01*
X459280Y138374D01*
X459344Y138425D01*
X459406Y138478D01*
X459465Y138535D01*
X459522Y138594D01*
X459576Y138656D01*
X459626Y138720D01*
X459674Y138786D01*
X459719Y138855D01*
X459760Y138925D01*
X459798Y138998D01*
X459833Y139072D01*
X459864Y139147D01*
X459892Y139224D01*
X459916Y139302D01*
X459937Y139382D01*
X459954Y139462D01*
X459967Y139542D01*
X459976Y139624D01*
X459982Y139705D01*
X459984Y139787D01*
X459984Y144213D01*
X459982Y144295D01*
X459976Y144376D01*
X459967Y144458D01*
X459954Y144538D01*
X459937Y144618D01*
X459916Y144698D01*
X459892Y144776D01*
X459864Y144853D01*
X459833Y144928D01*
X459798Y145002D01*
X459760Y145075D01*
X459719Y145145D01*
X459674Y145214D01*
X459626Y145280D01*
X459576Y145344D01*
X459522Y145406D01*
X459465Y145465D01*
X459406Y145522D01*
X459344Y145575D01*
X459280Y145626D01*
X459214Y145674D01*
X459145Y145719D01*
X459075Y145760D01*
X459002Y145798D01*
X458928Y145833D01*
X458853Y145864D01*
X458776Y145892D01*
X458698Y145916D01*
X458619Y145937D01*
X458538Y145954D01*
X458458Y145967D01*
X458376Y145976D01*
X458295Y145982D01*
X458213Y145984D01*
X456443Y145984D01*
X452438Y144213D02*
X450224Y145984D01*
X450224Y138016D01*
X448011Y138016D02*
X452438Y138016D01*
X497016Y122557D02*
X497016Y120787D01*
X497018Y120705D01*
X497024Y120624D01*
X497033Y120542D01*
X497046Y120462D01*
X497063Y120382D01*
X497084Y120302D01*
X497108Y120224D01*
X497136Y120147D01*
X497167Y120072D01*
X497202Y119998D01*
X497240Y119925D01*
X497281Y119855D01*
X497326Y119786D01*
X497374Y119720D01*
X497425Y119656D01*
X497478Y119594D01*
X497535Y119535D01*
X497594Y119478D01*
X497656Y119425D01*
X497720Y119374D01*
X497786Y119326D01*
X497855Y119281D01*
X497925Y119240D01*
X497998Y119202D01*
X498072Y119167D01*
X498147Y119136D01*
X498224Y119108D01*
X498302Y119084D01*
X498382Y119063D01*
X498462Y119046D01*
X498542Y119033D01*
X498624Y119024D01*
X498705Y119018D01*
X498787Y119016D01*
X503213Y119016D01*
X503295Y119018D01*
X503376Y119024D01*
X503458Y119033D01*
X503538Y119046D01*
X503618Y119063D01*
X503698Y119084D01*
X503776Y119108D01*
X503853Y119136D01*
X503928Y119167D01*
X504002Y119202D01*
X504075Y119240D01*
X504145Y119281D01*
X504214Y119326D01*
X504280Y119374D01*
X504344Y119425D01*
X504406Y119478D01*
X504465Y119535D01*
X504522Y119594D01*
X504575Y119656D01*
X504626Y119720D01*
X504674Y119786D01*
X504719Y119855D01*
X504760Y119925D01*
X504798Y119998D01*
X504833Y120072D01*
X504864Y120147D01*
X504892Y120224D01*
X504916Y120302D01*
X504937Y120382D01*
X504954Y120462D01*
X504967Y120542D01*
X504976Y120624D01*
X504982Y120705D01*
X504984Y120787D01*
X504984Y122557D01*
X504984Y128997D02*
X504982Y129084D01*
X504976Y129171D01*
X504967Y129257D01*
X504954Y129343D01*
X504937Y129428D01*
X504916Y129513D01*
X504892Y129596D01*
X504864Y129678D01*
X504832Y129759D01*
X504797Y129839D01*
X504759Y129917D01*
X504717Y129993D01*
X504672Y130067D01*
X504624Y130140D01*
X504572Y130210D01*
X504518Y130277D01*
X504461Y130343D01*
X504401Y130406D01*
X504338Y130466D01*
X504272Y130523D01*
X504205Y130577D01*
X504135Y130629D01*
X504062Y130677D01*
X503988Y130722D01*
X503912Y130764D01*
X503834Y130802D01*
X503754Y130837D01*
X503673Y130869D01*
X503591Y130897D01*
X503508Y130921D01*
X503423Y130942D01*
X503338Y130959D01*
X503252Y130972D01*
X503166Y130981D01*
X503079Y130987D01*
X502992Y130989D01*
X504984Y128997D02*
X504982Y128896D01*
X504976Y128796D01*
X504966Y128696D01*
X504952Y128596D01*
X504935Y128497D01*
X504913Y128399D01*
X504888Y128302D01*
X504859Y128206D01*
X504826Y128111D01*
X504789Y128017D01*
X504749Y127925D01*
X504705Y127834D01*
X504657Y127746D01*
X504606Y127659D01*
X504552Y127574D01*
X504495Y127492D01*
X504434Y127412D01*
X504370Y127334D01*
X504303Y127259D01*
X504233Y127186D01*
X504161Y127117D01*
X504086Y127050D01*
X504008Y126986D01*
X503928Y126926D01*
X503845Y126868D01*
X503760Y126814D01*
X503674Y126763D01*
X503585Y126716D01*
X503494Y126672D01*
X503402Y126632D01*
X503308Y126595D01*
X503213Y126562D01*
X501442Y130325D02*
X501507Y130390D01*
X501574Y130451D01*
X501643Y130510D01*
X501715Y130566D01*
X501790Y130619D01*
X501866Y130669D01*
X501945Y130715D01*
X502025Y130758D01*
X502107Y130798D01*
X502191Y130833D01*
X502276Y130866D01*
X502363Y130894D01*
X502451Y130919D01*
X502539Y130941D01*
X502629Y130958D01*
X502719Y130972D01*
X502810Y130981D01*
X502901Y130987D01*
X502992Y130989D01*
X501443Y130325D02*
X497016Y126562D01*
X497016Y130989D01*
X564016Y133782D02*
X564016Y135552D01*
X564016Y133782D02*
X564018Y133700D01*
X564024Y133619D01*
X564033Y133537D01*
X564046Y133457D01*
X564063Y133377D01*
X564084Y133297D01*
X564108Y133219D01*
X564136Y133142D01*
X564167Y133067D01*
X564202Y132993D01*
X564240Y132920D01*
X564281Y132850D01*
X564326Y132781D01*
X564374Y132715D01*
X564425Y132651D01*
X564478Y132589D01*
X564535Y132530D01*
X564594Y132473D01*
X564656Y132420D01*
X564720Y132369D01*
X564786Y132321D01*
X564855Y132276D01*
X564925Y132235D01*
X564998Y132197D01*
X565072Y132162D01*
X565147Y132131D01*
X565224Y132103D01*
X565302Y132079D01*
X565382Y132058D01*
X565462Y132041D01*
X565542Y132028D01*
X565624Y132019D01*
X565705Y132013D01*
X565787Y132011D01*
X570213Y132011D01*
X570295Y132013D01*
X570376Y132019D01*
X570458Y132028D01*
X570538Y132041D01*
X570618Y132058D01*
X570698Y132079D01*
X570776Y132103D01*
X570853Y132131D01*
X570928Y132162D01*
X571002Y132197D01*
X571075Y132235D01*
X571145Y132276D01*
X571214Y132321D01*
X571280Y132369D01*
X571344Y132420D01*
X571406Y132473D01*
X571465Y132530D01*
X571522Y132589D01*
X571575Y132651D01*
X571626Y132715D01*
X571674Y132781D01*
X571719Y132850D01*
X571760Y132920D01*
X571798Y132993D01*
X571833Y133067D01*
X571864Y133142D01*
X571892Y133219D01*
X571916Y133297D01*
X571937Y133377D01*
X571954Y133457D01*
X571967Y133537D01*
X571976Y133619D01*
X571982Y133700D01*
X571984Y133782D01*
X571984Y135552D01*
X564016Y139557D02*
X564016Y141771D01*
X564018Y141864D01*
X564024Y141956D01*
X564033Y142048D01*
X564047Y142140D01*
X564064Y142231D01*
X564086Y142321D01*
X564110Y142411D01*
X564139Y142499D01*
X564171Y142586D01*
X564207Y142671D01*
X564247Y142755D01*
X564290Y142837D01*
X564336Y142917D01*
X564386Y142996D01*
X564439Y143072D01*
X564495Y143146D01*
X564554Y143217D01*
X564616Y143286D01*
X564681Y143352D01*
X564748Y143416D01*
X564818Y143476D01*
X564891Y143534D01*
X564966Y143588D01*
X565043Y143639D01*
X565123Y143688D01*
X565204Y143732D01*
X565287Y143773D01*
X565371Y143811D01*
X565458Y143845D01*
X565545Y143876D01*
X565634Y143902D01*
X565724Y143926D01*
X565814Y143945D01*
X565906Y143960D01*
X565998Y143972D01*
X566090Y143980D01*
X566183Y143984D01*
X566275Y143984D01*
X566368Y143980D01*
X566460Y143972D01*
X566552Y143960D01*
X566644Y143945D01*
X566734Y143926D01*
X566824Y143902D01*
X566913Y143876D01*
X567000Y143845D01*
X567087Y143811D01*
X567171Y143773D01*
X567254Y143732D01*
X567336Y143688D01*
X567415Y143639D01*
X567492Y143588D01*
X567567Y143534D01*
X567640Y143476D01*
X567710Y143416D01*
X567777Y143352D01*
X567842Y143286D01*
X567904Y143217D01*
X567963Y143146D01*
X568019Y143072D01*
X568072Y142996D01*
X568122Y142917D01*
X568168Y142837D01*
X568211Y142755D01*
X568251Y142671D01*
X568287Y142586D01*
X568319Y142499D01*
X568348Y142411D01*
X568372Y142321D01*
X568394Y142231D01*
X568411Y142140D01*
X568425Y142048D01*
X568434Y141956D01*
X568440Y141864D01*
X568442Y141771D01*
X571984Y142213D02*
X571984Y139557D01*
X571984Y142213D02*
X571982Y142296D01*
X571976Y142379D01*
X571967Y142461D01*
X571953Y142543D01*
X571936Y142624D01*
X571914Y142705D01*
X571889Y142784D01*
X571861Y142862D01*
X571829Y142938D01*
X571793Y143013D01*
X571754Y143086D01*
X571711Y143158D01*
X571665Y143227D01*
X571616Y143294D01*
X571564Y143358D01*
X571509Y143420D01*
X571451Y143480D01*
X571390Y143536D01*
X571326Y143590D01*
X571261Y143641D01*
X571193Y143688D01*
X571122Y143733D01*
X571050Y143774D01*
X570976Y143811D01*
X570900Y143845D01*
X570823Y143876D01*
X570744Y143902D01*
X570665Y143925D01*
X570584Y143945D01*
X570502Y143960D01*
X570420Y143972D01*
X570337Y143980D01*
X570255Y143984D01*
X570171Y143984D01*
X570089Y143980D01*
X570006Y143972D01*
X569924Y143960D01*
X569842Y143945D01*
X569761Y143925D01*
X569682Y143902D01*
X569603Y143876D01*
X569526Y143845D01*
X569450Y143811D01*
X569376Y143774D01*
X569304Y143733D01*
X569233Y143688D01*
X569165Y143641D01*
X569100Y143590D01*
X569036Y143536D01*
X568975Y143480D01*
X568917Y143420D01*
X568862Y143358D01*
X568810Y143294D01*
X568761Y143227D01*
X568715Y143158D01*
X568672Y143086D01*
X568633Y143013D01*
X568597Y142938D01*
X568565Y142862D01*
X568537Y142784D01*
X568512Y142705D01*
X568490Y142624D01*
X568473Y142543D01*
X568459Y142461D01*
X568450Y142379D01*
X568444Y142296D01*
X568442Y142213D01*
X568443Y142213D02*
X568443Y140443D01*
X508316Y90957D02*
X508316Y89187D01*
X508318Y89105D01*
X508324Y89024D01*
X508333Y88942D01*
X508346Y88862D01*
X508363Y88782D01*
X508384Y88702D01*
X508408Y88624D01*
X508436Y88547D01*
X508467Y88472D01*
X508502Y88398D01*
X508540Y88325D01*
X508581Y88255D01*
X508626Y88186D01*
X508674Y88120D01*
X508725Y88056D01*
X508778Y87994D01*
X508835Y87935D01*
X508894Y87878D01*
X508956Y87825D01*
X509020Y87774D01*
X509086Y87726D01*
X509155Y87681D01*
X509225Y87640D01*
X509298Y87602D01*
X509372Y87567D01*
X509447Y87536D01*
X509524Y87508D01*
X509602Y87484D01*
X509682Y87463D01*
X509762Y87446D01*
X509842Y87433D01*
X509924Y87424D01*
X510005Y87418D01*
X510087Y87416D01*
X514513Y87416D01*
X514595Y87418D01*
X514676Y87424D01*
X514758Y87433D01*
X514838Y87446D01*
X514918Y87463D01*
X514998Y87484D01*
X515076Y87508D01*
X515153Y87536D01*
X515228Y87567D01*
X515302Y87602D01*
X515375Y87640D01*
X515445Y87681D01*
X515514Y87726D01*
X515580Y87774D01*
X515644Y87825D01*
X515706Y87878D01*
X515765Y87935D01*
X515822Y87994D01*
X515875Y88056D01*
X515926Y88120D01*
X515974Y88186D01*
X516019Y88255D01*
X516060Y88325D01*
X516098Y88398D01*
X516133Y88472D01*
X516164Y88547D01*
X516192Y88624D01*
X516216Y88702D01*
X516237Y88782D01*
X516254Y88862D01*
X516267Y88942D01*
X516276Y89024D01*
X516282Y89105D01*
X516284Y89187D01*
X516284Y90957D01*
X516284Y96733D02*
X510087Y94962D01*
X510087Y99389D01*
X511857Y98061D02*
X508316Y98061D01*
X458313Y172416D02*
X456543Y172416D01*
X458313Y172416D02*
X458395Y172418D01*
X458476Y172424D01*
X458558Y172433D01*
X458638Y172446D01*
X458718Y172463D01*
X458798Y172484D01*
X458876Y172508D01*
X458953Y172536D01*
X459028Y172567D01*
X459102Y172602D01*
X459175Y172640D01*
X459245Y172681D01*
X459314Y172726D01*
X459380Y172774D01*
X459444Y172825D01*
X459506Y172878D01*
X459565Y172935D01*
X459622Y172994D01*
X459676Y173056D01*
X459726Y173120D01*
X459774Y173186D01*
X459819Y173255D01*
X459860Y173325D01*
X459898Y173398D01*
X459933Y173472D01*
X459964Y173547D01*
X459992Y173624D01*
X460016Y173702D01*
X460037Y173782D01*
X460054Y173862D01*
X460067Y173942D01*
X460076Y174024D01*
X460082Y174105D01*
X460084Y174187D01*
X460084Y178613D01*
X460082Y178695D01*
X460076Y178776D01*
X460067Y178858D01*
X460054Y178938D01*
X460037Y179018D01*
X460016Y179098D01*
X459992Y179176D01*
X459964Y179253D01*
X459933Y179328D01*
X459898Y179402D01*
X459860Y179475D01*
X459819Y179545D01*
X459774Y179614D01*
X459726Y179680D01*
X459676Y179744D01*
X459622Y179806D01*
X459565Y179865D01*
X459506Y179922D01*
X459444Y179975D01*
X459380Y180026D01*
X459314Y180074D01*
X459245Y180119D01*
X459175Y180160D01*
X459102Y180198D01*
X459028Y180233D01*
X458953Y180264D01*
X458876Y180292D01*
X458798Y180316D01*
X458719Y180337D01*
X458638Y180354D01*
X458558Y180367D01*
X458476Y180376D01*
X458395Y180382D01*
X458313Y180384D01*
X456543Y180384D01*
X452538Y172416D02*
X449882Y172416D01*
X449800Y172418D01*
X449719Y172424D01*
X449637Y172433D01*
X449557Y172446D01*
X449477Y172463D01*
X449397Y172484D01*
X449319Y172508D01*
X449242Y172536D01*
X449167Y172567D01*
X449093Y172602D01*
X449020Y172640D01*
X448950Y172681D01*
X448881Y172726D01*
X448815Y172774D01*
X448751Y172825D01*
X448689Y172878D01*
X448630Y172935D01*
X448573Y172994D01*
X448520Y173056D01*
X448469Y173120D01*
X448421Y173186D01*
X448376Y173255D01*
X448335Y173325D01*
X448297Y173398D01*
X448262Y173472D01*
X448231Y173547D01*
X448203Y173624D01*
X448179Y173702D01*
X448158Y173782D01*
X448141Y173862D01*
X448128Y173942D01*
X448119Y174024D01*
X448113Y174105D01*
X448111Y174187D01*
X448111Y175072D01*
X448113Y175154D01*
X448119Y175235D01*
X448128Y175317D01*
X448141Y175397D01*
X448158Y175477D01*
X448179Y175557D01*
X448203Y175635D01*
X448231Y175712D01*
X448262Y175787D01*
X448297Y175861D01*
X448335Y175934D01*
X448376Y176004D01*
X448421Y176073D01*
X448469Y176139D01*
X448520Y176203D01*
X448573Y176265D01*
X448630Y176324D01*
X448689Y176381D01*
X448751Y176435D01*
X448815Y176485D01*
X448881Y176533D01*
X448950Y176578D01*
X449020Y176619D01*
X449093Y176657D01*
X449167Y176692D01*
X449242Y176723D01*
X449319Y176751D01*
X449397Y176775D01*
X449477Y176796D01*
X449557Y176813D01*
X449637Y176826D01*
X449719Y176835D01*
X449800Y176841D01*
X449882Y176843D01*
X452538Y176843D01*
X452538Y180384D01*
X448111Y180384D01*
D11*
X509000Y169000D02*
X509000Y165000D01*
X509000Y169000D02*
X513000Y169000D01*
X555000Y169000D02*
X559000Y169000D01*
X559000Y165000D01*
X559000Y123000D02*
X559000Y119000D01*
X555000Y119000D01*
X513000Y119000D02*
X509000Y123000D01*
X509000Y119000D02*
X513000Y119000D01*
X509000Y119000D02*
X509000Y123000D01*
D10*
X554529Y176266D02*
X554529Y184234D01*
X553644Y176266D02*
X555415Y176266D01*
X555415Y184234D02*
X553644Y184234D01*
X547818Y176266D02*
X546048Y176266D01*
X547818Y176266D02*
X547900Y176268D01*
X547981Y176274D01*
X548063Y176283D01*
X548143Y176296D01*
X548223Y176313D01*
X548303Y176334D01*
X548381Y176358D01*
X548458Y176386D01*
X548533Y176417D01*
X548607Y176452D01*
X548680Y176490D01*
X548750Y176531D01*
X548819Y176576D01*
X548885Y176624D01*
X548949Y176675D01*
X549011Y176728D01*
X549070Y176785D01*
X549127Y176844D01*
X549181Y176906D01*
X549231Y176970D01*
X549279Y177036D01*
X549324Y177105D01*
X549365Y177175D01*
X549403Y177248D01*
X549438Y177322D01*
X549469Y177397D01*
X549497Y177474D01*
X549521Y177552D01*
X549542Y177632D01*
X549559Y177712D01*
X549572Y177792D01*
X549581Y177874D01*
X549587Y177955D01*
X549589Y178037D01*
X549589Y182463D01*
X549587Y182545D01*
X549581Y182626D01*
X549572Y182708D01*
X549559Y182788D01*
X549542Y182868D01*
X549521Y182948D01*
X549497Y183026D01*
X549469Y183103D01*
X549438Y183178D01*
X549403Y183252D01*
X549365Y183325D01*
X549324Y183395D01*
X549279Y183464D01*
X549231Y183530D01*
X549181Y183594D01*
X549127Y183656D01*
X549070Y183715D01*
X549011Y183772D01*
X548949Y183825D01*
X548885Y183876D01*
X548819Y183924D01*
X548750Y183969D01*
X548680Y184010D01*
X548607Y184048D01*
X548533Y184083D01*
X548458Y184114D01*
X548381Y184142D01*
X548303Y184166D01*
X548224Y184187D01*
X548143Y184204D01*
X548063Y184217D01*
X547981Y184226D01*
X547900Y184232D01*
X547818Y184234D01*
X546048Y184234D01*
X542043Y182463D02*
X539829Y184234D01*
X539829Y176266D01*
X537616Y176266D02*
X542043Y176266D01*
D12*
X546500Y95500D02*
X531500Y95500D01*
X531500Y64500D02*
X546500Y64500D01*
D10*
X555256Y70236D02*
X563224Y70236D01*
X563224Y72449D01*
X563222Y72542D01*
X563216Y72634D01*
X563207Y72726D01*
X563193Y72818D01*
X563176Y72909D01*
X563154Y72999D01*
X563130Y73089D01*
X563101Y73177D01*
X563069Y73264D01*
X563033Y73349D01*
X562993Y73433D01*
X562950Y73515D01*
X562904Y73595D01*
X562854Y73674D01*
X562801Y73750D01*
X562745Y73824D01*
X562686Y73895D01*
X562624Y73964D01*
X562559Y74030D01*
X562492Y74094D01*
X562422Y74154D01*
X562349Y74212D01*
X562274Y74266D01*
X562197Y74317D01*
X562118Y74366D01*
X562036Y74410D01*
X561953Y74451D01*
X561869Y74489D01*
X561782Y74523D01*
X561695Y74554D01*
X561606Y74580D01*
X561516Y74604D01*
X561426Y74623D01*
X561334Y74638D01*
X561242Y74650D01*
X561150Y74658D01*
X561057Y74662D01*
X560965Y74662D01*
X560872Y74658D01*
X560780Y74650D01*
X560688Y74638D01*
X560596Y74623D01*
X560506Y74604D01*
X560416Y74580D01*
X560327Y74554D01*
X560240Y74523D01*
X560153Y74489D01*
X560069Y74451D01*
X559986Y74410D01*
X559905Y74366D01*
X559825Y74317D01*
X559748Y74266D01*
X559673Y74212D01*
X559600Y74154D01*
X559530Y74094D01*
X559463Y74030D01*
X559398Y73964D01*
X559336Y73895D01*
X559277Y73824D01*
X559221Y73750D01*
X559168Y73674D01*
X559118Y73595D01*
X559072Y73515D01*
X559029Y73433D01*
X558989Y73349D01*
X558953Y73264D01*
X558921Y73177D01*
X558892Y73089D01*
X558868Y72999D01*
X558846Y72909D01*
X558829Y72818D01*
X558815Y72726D01*
X558806Y72634D01*
X558800Y72542D01*
X558798Y72449D01*
X558797Y72449D02*
X558797Y70236D01*
X558797Y72892D02*
X555256Y74663D01*
X555256Y79433D02*
X563224Y79433D01*
X555256Y83860D01*
X563224Y83860D01*
X561453Y88733D02*
X563224Y90947D01*
X555256Y90947D01*
X555256Y93160D02*
X555256Y88733D01*
X504984Y146328D02*
X497016Y141016D01*
X497016Y146328D02*
X504984Y141016D01*
X504984Y152672D02*
X497016Y150016D01*
X497016Y155328D02*
X504984Y152672D01*
X499008Y154664D02*
X499008Y150680D01*
X497016Y161072D02*
X504984Y161072D01*
X504984Y158859D02*
X504984Y163285D01*
X504984Y167590D02*
X497016Y167590D01*
X497016Y171131D01*
X503213Y175059D02*
X504984Y177272D01*
X497016Y177272D01*
X497016Y175059D02*
X497016Y179485D01*
D13*
X503500Y80500D02*
X503500Y79500D01*
X503500Y80500D02*
X510000Y80500D01*
X511000Y80500D01*
X512000Y80500D01*
X513500Y80500D01*
X515500Y80500D01*
X516500Y79500D01*
X503500Y64500D02*
X503500Y63500D01*
X516500Y63500D01*
X516500Y64500D01*
X513500Y79000D02*
X513500Y80500D01*
X513500Y79000D02*
X513500Y78000D01*
X513500Y77000D01*
X510000Y80500D01*
X511000Y80500D02*
X513500Y78000D01*
X513500Y79000D02*
X512000Y80500D01*
D10*
X515743Y60984D02*
X515743Y55229D01*
X515742Y55229D02*
X515740Y55136D01*
X515734Y55044D01*
X515725Y54952D01*
X515711Y54860D01*
X515694Y54769D01*
X515672Y54679D01*
X515648Y54589D01*
X515619Y54501D01*
X515587Y54414D01*
X515551Y54329D01*
X515511Y54245D01*
X515468Y54163D01*
X515422Y54083D01*
X515372Y54004D01*
X515319Y53928D01*
X515263Y53854D01*
X515204Y53783D01*
X515142Y53714D01*
X515077Y53648D01*
X515010Y53584D01*
X514940Y53524D01*
X514867Y53466D01*
X514792Y53412D01*
X514715Y53361D01*
X514636Y53312D01*
X514554Y53268D01*
X514471Y53227D01*
X514387Y53189D01*
X514300Y53155D01*
X514213Y53124D01*
X514124Y53098D01*
X514034Y53074D01*
X513944Y53055D01*
X513852Y53040D01*
X513760Y53028D01*
X513668Y53020D01*
X513575Y53016D01*
X513483Y53016D01*
X513390Y53020D01*
X513298Y53028D01*
X513206Y53040D01*
X513114Y53055D01*
X513024Y53074D01*
X512934Y53098D01*
X512845Y53124D01*
X512758Y53155D01*
X512671Y53189D01*
X512587Y53227D01*
X512504Y53268D01*
X512423Y53312D01*
X512343Y53361D01*
X512266Y53412D01*
X512191Y53466D01*
X512118Y53524D01*
X512048Y53584D01*
X511981Y53648D01*
X511916Y53714D01*
X511854Y53783D01*
X511795Y53854D01*
X511739Y53928D01*
X511686Y54004D01*
X511636Y54083D01*
X511590Y54163D01*
X511547Y54245D01*
X511507Y54329D01*
X511471Y54414D01*
X511439Y54501D01*
X511410Y54589D01*
X511386Y54679D01*
X511364Y54769D01*
X511347Y54860D01*
X511333Y54952D01*
X511324Y55044D01*
X511318Y55136D01*
X511316Y55229D01*
X511316Y60984D01*
X506443Y59213D02*
X504229Y60984D01*
X504229Y53016D01*
X502016Y53016D02*
X506443Y53016D01*
X411684Y83316D02*
X403716Y83316D01*
X411684Y83316D02*
X411684Y85529D01*
X411682Y85622D01*
X411676Y85714D01*
X411667Y85806D01*
X411653Y85898D01*
X411636Y85989D01*
X411614Y86079D01*
X411590Y86169D01*
X411561Y86257D01*
X411529Y86344D01*
X411493Y86429D01*
X411453Y86513D01*
X411410Y86595D01*
X411364Y86675D01*
X411314Y86754D01*
X411261Y86830D01*
X411205Y86904D01*
X411146Y86975D01*
X411084Y87044D01*
X411019Y87110D01*
X410952Y87174D01*
X410882Y87234D01*
X410809Y87292D01*
X410734Y87346D01*
X410657Y87397D01*
X410578Y87446D01*
X410496Y87490D01*
X410413Y87531D01*
X410329Y87569D01*
X410242Y87603D01*
X410155Y87634D01*
X410066Y87660D01*
X409976Y87684D01*
X409886Y87703D01*
X409794Y87718D01*
X409702Y87730D01*
X409610Y87738D01*
X409517Y87742D01*
X409425Y87742D01*
X409332Y87738D01*
X409240Y87730D01*
X409148Y87718D01*
X409056Y87703D01*
X408966Y87684D01*
X408876Y87660D01*
X408787Y87634D01*
X408700Y87603D01*
X408613Y87569D01*
X408529Y87531D01*
X408446Y87490D01*
X408365Y87446D01*
X408285Y87397D01*
X408208Y87346D01*
X408133Y87292D01*
X408060Y87234D01*
X407990Y87174D01*
X407923Y87110D01*
X407858Y87044D01*
X407796Y86975D01*
X407737Y86904D01*
X407681Y86830D01*
X407628Y86754D01*
X407578Y86675D01*
X407532Y86595D01*
X407489Y86513D01*
X407449Y86429D01*
X407413Y86344D01*
X407381Y86257D01*
X407352Y86169D01*
X407328Y86079D01*
X407306Y85989D01*
X407289Y85898D01*
X407275Y85806D01*
X407266Y85714D01*
X407260Y85622D01*
X407258Y85529D01*
X407257Y85529D02*
X407257Y83316D01*
X403716Y92183D02*
X411684Y92183D01*
X411684Y94396D01*
X411682Y94489D01*
X411676Y94581D01*
X411667Y94673D01*
X411653Y94765D01*
X411636Y94856D01*
X411614Y94946D01*
X411590Y95036D01*
X411561Y95124D01*
X411529Y95211D01*
X411493Y95296D01*
X411453Y95380D01*
X411410Y95462D01*
X411364Y95542D01*
X411314Y95621D01*
X411261Y95697D01*
X411205Y95771D01*
X411146Y95842D01*
X411084Y95911D01*
X411019Y95977D01*
X410952Y96041D01*
X410882Y96101D01*
X410809Y96159D01*
X410734Y96213D01*
X410657Y96264D01*
X410578Y96313D01*
X410496Y96357D01*
X410413Y96398D01*
X410329Y96436D01*
X410242Y96470D01*
X410155Y96501D01*
X410066Y96527D01*
X409976Y96551D01*
X409886Y96570D01*
X409794Y96585D01*
X409702Y96597D01*
X409610Y96605D01*
X409517Y96609D01*
X409425Y96609D01*
X409332Y96605D01*
X409240Y96597D01*
X409148Y96585D01*
X409056Y96570D01*
X408966Y96551D01*
X408876Y96527D01*
X408787Y96501D01*
X408700Y96470D01*
X408613Y96436D01*
X408529Y96398D01*
X408446Y96357D01*
X408365Y96313D01*
X408285Y96264D01*
X408208Y96213D01*
X408133Y96159D01*
X408060Y96101D01*
X407990Y96041D01*
X407923Y95977D01*
X407858Y95911D01*
X407796Y95842D01*
X407737Y95771D01*
X407681Y95697D01*
X407628Y95621D01*
X407578Y95542D01*
X407532Y95462D01*
X407489Y95380D01*
X407449Y95296D01*
X407413Y95211D01*
X407381Y95124D01*
X407352Y95036D01*
X407328Y94946D01*
X407306Y94856D01*
X407289Y94765D01*
X407275Y94673D01*
X407266Y94581D01*
X407260Y94489D01*
X407258Y94396D01*
X407257Y94396D02*
X407257Y92183D01*
X407257Y94839D02*
X403716Y96609D01*
X405929Y101080D02*
X409471Y101080D01*
X409564Y101082D01*
X409656Y101088D01*
X409748Y101097D01*
X409840Y101111D01*
X409931Y101128D01*
X410021Y101150D01*
X410111Y101174D01*
X410199Y101203D01*
X410286Y101235D01*
X410371Y101271D01*
X410455Y101311D01*
X410537Y101354D01*
X410617Y101400D01*
X410696Y101450D01*
X410772Y101503D01*
X410846Y101559D01*
X410917Y101618D01*
X410986Y101680D01*
X411052Y101745D01*
X411116Y101812D01*
X411176Y101882D01*
X411234Y101955D01*
X411288Y102030D01*
X411339Y102107D01*
X411388Y102187D01*
X411432Y102268D01*
X411473Y102351D01*
X411511Y102435D01*
X411545Y102522D01*
X411576Y102609D01*
X411602Y102698D01*
X411626Y102788D01*
X411645Y102878D01*
X411660Y102970D01*
X411672Y103062D01*
X411680Y103154D01*
X411684Y103247D01*
X411684Y103339D01*
X411680Y103432D01*
X411672Y103524D01*
X411660Y103616D01*
X411645Y103708D01*
X411626Y103798D01*
X411602Y103888D01*
X411576Y103977D01*
X411545Y104064D01*
X411511Y104151D01*
X411473Y104235D01*
X411432Y104318D01*
X411388Y104400D01*
X411339Y104479D01*
X411288Y104556D01*
X411234Y104631D01*
X411176Y104704D01*
X411116Y104774D01*
X411052Y104841D01*
X410986Y104906D01*
X410917Y104968D01*
X410846Y105027D01*
X410772Y105083D01*
X410696Y105136D01*
X410617Y105186D01*
X410537Y105232D01*
X410455Y105275D01*
X410371Y105315D01*
X410286Y105351D01*
X410199Y105383D01*
X410111Y105412D01*
X410021Y105436D01*
X409931Y105458D01*
X409840Y105475D01*
X409748Y105489D01*
X409656Y105498D01*
X409564Y105504D01*
X409471Y105506D01*
X409471Y105507D02*
X405929Y105507D01*
X405929Y105506D02*
X405836Y105504D01*
X405744Y105498D01*
X405652Y105489D01*
X405560Y105475D01*
X405469Y105458D01*
X405379Y105436D01*
X405289Y105412D01*
X405201Y105383D01*
X405114Y105351D01*
X405029Y105315D01*
X404945Y105275D01*
X404863Y105232D01*
X404783Y105186D01*
X404704Y105136D01*
X404628Y105083D01*
X404554Y105027D01*
X404483Y104968D01*
X404414Y104906D01*
X404348Y104841D01*
X404284Y104774D01*
X404224Y104704D01*
X404166Y104631D01*
X404112Y104556D01*
X404061Y104479D01*
X404012Y104400D01*
X403968Y104318D01*
X403927Y104235D01*
X403889Y104151D01*
X403855Y104064D01*
X403824Y103977D01*
X403798Y103888D01*
X403774Y103798D01*
X403755Y103708D01*
X403740Y103616D01*
X403728Y103524D01*
X403720Y103432D01*
X403716Y103339D01*
X403716Y103247D01*
X403720Y103154D01*
X403728Y103062D01*
X403740Y102970D01*
X403755Y102878D01*
X403774Y102788D01*
X403798Y102698D01*
X403824Y102609D01*
X403855Y102522D01*
X403889Y102435D01*
X403927Y102351D01*
X403968Y102268D01*
X404012Y102187D01*
X404061Y102107D01*
X404112Y102030D01*
X404166Y101955D01*
X404224Y101882D01*
X404284Y101812D01*
X404348Y101745D01*
X404414Y101680D01*
X404483Y101618D01*
X404554Y101559D01*
X404628Y101503D01*
X404704Y101450D01*
X404783Y101400D01*
X404863Y101354D01*
X404945Y101311D01*
X405029Y101271D01*
X405114Y101235D01*
X405201Y101203D01*
X405289Y101174D01*
X405379Y101150D01*
X405469Y101128D01*
X405560Y101111D01*
X405652Y101097D01*
X405744Y101088D01*
X405836Y101082D01*
X405929Y101080D01*
X408143Y113479D02*
X408143Y114807D01*
X403716Y114807D01*
X403716Y112151D01*
X403718Y112069D01*
X403724Y111988D01*
X403733Y111906D01*
X403746Y111826D01*
X403763Y111746D01*
X403784Y111666D01*
X403808Y111588D01*
X403836Y111511D01*
X403867Y111436D01*
X403902Y111362D01*
X403940Y111289D01*
X403981Y111219D01*
X404026Y111150D01*
X404074Y111084D01*
X404125Y111020D01*
X404178Y110958D01*
X404235Y110899D01*
X404294Y110842D01*
X404356Y110789D01*
X404420Y110738D01*
X404486Y110690D01*
X404555Y110645D01*
X404625Y110604D01*
X404698Y110566D01*
X404772Y110531D01*
X404847Y110500D01*
X404924Y110472D01*
X405002Y110448D01*
X405082Y110427D01*
X405162Y110410D01*
X405242Y110397D01*
X405324Y110388D01*
X405405Y110382D01*
X405487Y110380D01*
X409913Y110380D01*
X409995Y110382D01*
X410076Y110388D01*
X410158Y110397D01*
X410238Y110410D01*
X410318Y110427D01*
X410398Y110448D01*
X410476Y110472D01*
X410553Y110500D01*
X410628Y110531D01*
X410702Y110566D01*
X410775Y110604D01*
X410845Y110645D01*
X410914Y110690D01*
X410980Y110738D01*
X411044Y110789D01*
X411106Y110842D01*
X411165Y110899D01*
X411222Y110958D01*
X411275Y111020D01*
X411326Y111084D01*
X411374Y111150D01*
X411419Y111219D01*
X411460Y111289D01*
X411498Y111362D01*
X411533Y111436D01*
X411564Y111511D01*
X411592Y111588D01*
X411616Y111666D01*
X411637Y111746D01*
X411654Y111826D01*
X411667Y111906D01*
X411676Y111988D01*
X411682Y112069D01*
X411684Y112151D01*
X411684Y114807D01*
X485990Y65634D02*
X485990Y57666D01*
X485990Y65634D02*
X483777Y65634D01*
X483684Y65632D01*
X483592Y65626D01*
X483500Y65617D01*
X483408Y65603D01*
X483317Y65586D01*
X483227Y65564D01*
X483137Y65540D01*
X483049Y65511D01*
X482962Y65479D01*
X482877Y65443D01*
X482793Y65403D01*
X482711Y65360D01*
X482631Y65314D01*
X482552Y65264D01*
X482476Y65211D01*
X482402Y65155D01*
X482331Y65096D01*
X482262Y65034D01*
X482196Y64969D01*
X482132Y64902D01*
X482072Y64832D01*
X482014Y64759D01*
X481960Y64684D01*
X481909Y64607D01*
X481860Y64528D01*
X481816Y64446D01*
X481775Y64363D01*
X481737Y64279D01*
X481703Y64192D01*
X481672Y64105D01*
X481646Y64016D01*
X481622Y63926D01*
X481603Y63836D01*
X481588Y63744D01*
X481576Y63652D01*
X481568Y63560D01*
X481564Y63467D01*
X481564Y63375D01*
X481568Y63282D01*
X481576Y63190D01*
X481588Y63098D01*
X481603Y63006D01*
X481622Y62916D01*
X481646Y62826D01*
X481672Y62737D01*
X481703Y62650D01*
X481737Y62563D01*
X481775Y62479D01*
X481816Y62396D01*
X481860Y62314D01*
X481909Y62235D01*
X481960Y62158D01*
X482014Y62083D01*
X482072Y62010D01*
X482132Y61940D01*
X482196Y61873D01*
X482262Y61808D01*
X482331Y61746D01*
X482402Y61687D01*
X482476Y61631D01*
X482552Y61578D01*
X482631Y61528D01*
X482711Y61482D01*
X482793Y61439D01*
X482877Y61399D01*
X482962Y61363D01*
X483049Y61331D01*
X483137Y61302D01*
X483227Y61278D01*
X483317Y61256D01*
X483408Y61239D01*
X483500Y61225D01*
X483592Y61216D01*
X483684Y61210D01*
X483777Y61208D01*
X483777Y61207D02*
X485990Y61207D01*
X483334Y61207D02*
X481563Y57666D01*
X477093Y63863D02*
X474879Y65634D01*
X474879Y57666D01*
X472666Y57666D02*
X477093Y57666D01*
X469821Y108966D02*
X466279Y108966D01*
X469821Y108966D02*
X469914Y108968D01*
X470006Y108974D01*
X470098Y108983D01*
X470190Y108997D01*
X470281Y109014D01*
X470371Y109036D01*
X470461Y109060D01*
X470549Y109089D01*
X470636Y109121D01*
X470721Y109157D01*
X470805Y109197D01*
X470887Y109240D01*
X470967Y109286D01*
X471046Y109336D01*
X471122Y109389D01*
X471196Y109445D01*
X471267Y109504D01*
X471336Y109566D01*
X471402Y109631D01*
X471466Y109698D01*
X471526Y109768D01*
X471584Y109841D01*
X471638Y109916D01*
X471689Y109993D01*
X471738Y110073D01*
X471782Y110154D01*
X471823Y110237D01*
X471861Y110321D01*
X471895Y110408D01*
X471926Y110495D01*
X471952Y110584D01*
X471976Y110674D01*
X471995Y110764D01*
X472010Y110856D01*
X472022Y110948D01*
X472030Y111040D01*
X472034Y111133D01*
X472034Y111225D01*
X472030Y111318D01*
X472022Y111410D01*
X472010Y111502D01*
X471995Y111594D01*
X471976Y111684D01*
X471952Y111774D01*
X471926Y111863D01*
X471895Y111950D01*
X471861Y112037D01*
X471823Y112121D01*
X471782Y112204D01*
X471738Y112286D01*
X471689Y112365D01*
X471638Y112442D01*
X471584Y112517D01*
X471526Y112590D01*
X471466Y112660D01*
X471402Y112727D01*
X471336Y112792D01*
X471267Y112854D01*
X471196Y112913D01*
X471122Y112969D01*
X471046Y113022D01*
X470967Y113072D01*
X470887Y113118D01*
X470805Y113161D01*
X470721Y113201D01*
X470636Y113237D01*
X470549Y113269D01*
X470461Y113298D01*
X470371Y113322D01*
X470281Y113344D01*
X470190Y113361D01*
X470098Y113375D01*
X470006Y113384D01*
X469914Y113390D01*
X469821Y113392D01*
X469821Y113393D02*
X466279Y113393D01*
X466279Y113392D02*
X466186Y113390D01*
X466094Y113384D01*
X466002Y113375D01*
X465910Y113361D01*
X465819Y113344D01*
X465729Y113322D01*
X465639Y113298D01*
X465551Y113269D01*
X465464Y113237D01*
X465379Y113201D01*
X465295Y113161D01*
X465213Y113118D01*
X465133Y113072D01*
X465054Y113022D01*
X464978Y112969D01*
X464904Y112913D01*
X464833Y112854D01*
X464764Y112792D01*
X464698Y112727D01*
X464634Y112660D01*
X464574Y112590D01*
X464516Y112517D01*
X464462Y112442D01*
X464411Y112365D01*
X464362Y112286D01*
X464318Y112204D01*
X464277Y112121D01*
X464239Y112037D01*
X464205Y111950D01*
X464174Y111863D01*
X464148Y111774D01*
X464124Y111684D01*
X464105Y111594D01*
X464090Y111502D01*
X464078Y111410D01*
X464070Y111318D01*
X464066Y111225D01*
X464066Y111133D01*
X464070Y111040D01*
X464078Y110948D01*
X464090Y110856D01*
X464105Y110764D01*
X464124Y110674D01*
X464148Y110584D01*
X464174Y110495D01*
X464205Y110408D01*
X464239Y110321D01*
X464277Y110237D01*
X464318Y110154D01*
X464362Y110073D01*
X464411Y109993D01*
X464462Y109916D01*
X464516Y109841D01*
X464574Y109768D01*
X464634Y109698D01*
X464698Y109631D01*
X464764Y109566D01*
X464833Y109504D01*
X464904Y109445D01*
X464978Y109389D01*
X465054Y109336D01*
X465133Y109286D01*
X465213Y109240D01*
X465295Y109197D01*
X465379Y109157D01*
X465464Y109121D01*
X465551Y109089D01*
X465639Y109060D01*
X465729Y109036D01*
X465819Y109014D01*
X465910Y108997D01*
X466002Y108983D01*
X466094Y108974D01*
X466186Y108968D01*
X466279Y108966D01*
X465837Y112507D02*
X464066Y114278D01*
X470263Y117336D02*
X472034Y119550D01*
X464066Y119550D01*
X464066Y121763D02*
X464066Y117336D01*
D14*
X462000Y76500D02*
X452000Y76500D01*
M02*
