M48
;GenerationSoftware,Autodesk,EAGLE,9.6.2*%
;CreationDate,2022-03-07T07:00:20Z*%
FMAT,2
ICI,OFF
METRIC,TZ,000.000
T5C0.350
T4C0.500
T3C0.900
T2C1.500
%
G90
M71
T2
X61300Y2400
X61300Y14600
T3
X61300Y4500
X61300Y6500
X61300Y8500
X61300Y12500
T4
X38900Y10700
X38900Y14500
T5
X44800Y9900
X58700Y12200
X50000Y14900
X44300Y16500
X45300Y11800
X50000Y10900
X56000Y3500
X53400Y14500
X53600Y17800
X40769Y12470
X51300Y11400
X51957Y10743
X52500Y10000
X52600Y17700
M30