G04 EAGLE Gerber RS-274X export*
G75*
%MOMM*%
%FSLAX34Y34*%
%LPD*%
%INSoldermask Bottom*%
%IPPOS*%
%AMOC8*
5,1,8,0,0,1.08239X$1,22.5*%
G01*
%ADD10R,1.101600X0.901600*%
%ADD11R,0.901600X1.101600*%
%ADD12C,0.253006*%
%ADD13R,3.301600X3.301600*%
%ADD14R,1.000000X0.600000*%
%ADD15R,1.701600X1.201600*%
%ADD16R,0.601600X0.401600*%
%ADD17R,1.881600X0.821600*%
%ADD18C,0.821600*%
%ADD19C,1.509600*%
%ADD20C,2.351600*%
%ADD21R,1.101600X1.201600*%
%ADD22R,1.101600X1.501600*%
%ADD23R,0.901600X2.101600*%
%ADD24R,0.551600X0.691600*%
%ADD25C,1.008000*%


D10*
X453000Y153000D03*
X469000Y153000D03*
D11*
X491000Y124000D03*
X491000Y108000D03*
X579000Y132000D03*
X579000Y148000D03*
X502000Y102000D03*
X502000Y86000D03*
D10*
X469000Y165000D03*
X453000Y165000D03*
D12*
X507757Y125757D02*
X513243Y125757D01*
X507757Y125757D02*
X507757Y127243D01*
X513243Y127243D01*
X513243Y125757D01*
X513243Y130757D02*
X507757Y130757D01*
X507757Y132243D01*
X513243Y132243D01*
X513243Y130757D01*
X513243Y135757D02*
X507757Y135757D01*
X507757Y137243D01*
X513243Y137243D01*
X513243Y135757D01*
X513243Y140757D02*
X507757Y140757D01*
X507757Y142243D01*
X513243Y142243D01*
X513243Y140757D01*
X513243Y145757D02*
X507757Y145757D01*
X507757Y147243D01*
X513243Y147243D01*
X513243Y145757D01*
X513243Y150757D02*
X507757Y150757D01*
X507757Y152243D01*
X513243Y152243D01*
X513243Y150757D01*
X513243Y155757D02*
X507757Y155757D01*
X507757Y157243D01*
X513243Y157243D01*
X513243Y155757D01*
X513243Y160757D02*
X507757Y160757D01*
X507757Y162243D01*
X513243Y162243D01*
X513243Y160757D01*
X515757Y164757D02*
X517243Y164757D01*
X515757Y164757D02*
X515757Y170243D01*
X517243Y170243D01*
X517243Y164757D01*
X517243Y167160D02*
X515757Y167160D01*
X515757Y169563D02*
X517243Y169563D01*
X520757Y164757D02*
X522243Y164757D01*
X520757Y164757D02*
X520757Y170243D01*
X522243Y170243D01*
X522243Y164757D01*
X522243Y167160D02*
X520757Y167160D01*
X520757Y169563D02*
X522243Y169563D01*
X525757Y164757D02*
X527243Y164757D01*
X525757Y164757D02*
X525757Y170243D01*
X527243Y170243D01*
X527243Y164757D01*
X527243Y167160D02*
X525757Y167160D01*
X525757Y169563D02*
X527243Y169563D01*
X530757Y164757D02*
X532243Y164757D01*
X530757Y164757D02*
X530757Y170243D01*
X532243Y170243D01*
X532243Y164757D01*
X532243Y167160D02*
X530757Y167160D01*
X530757Y169563D02*
X532243Y169563D01*
X535757Y164757D02*
X537243Y164757D01*
X535757Y164757D02*
X535757Y170243D01*
X537243Y170243D01*
X537243Y164757D01*
X537243Y167160D02*
X535757Y167160D01*
X535757Y169563D02*
X537243Y169563D01*
X540757Y164757D02*
X542243Y164757D01*
X540757Y164757D02*
X540757Y170243D01*
X542243Y170243D01*
X542243Y164757D01*
X542243Y167160D02*
X540757Y167160D01*
X540757Y169563D02*
X542243Y169563D01*
X545757Y164757D02*
X547243Y164757D01*
X545757Y164757D02*
X545757Y170243D01*
X547243Y170243D01*
X547243Y164757D01*
X547243Y167160D02*
X545757Y167160D01*
X545757Y169563D02*
X547243Y169563D01*
X550757Y164757D02*
X552243Y164757D01*
X550757Y164757D02*
X550757Y170243D01*
X552243Y170243D01*
X552243Y164757D01*
X552243Y167160D02*
X550757Y167160D01*
X550757Y169563D02*
X552243Y169563D01*
X554757Y160757D02*
X560243Y160757D01*
X554757Y160757D02*
X554757Y162243D01*
X560243Y162243D01*
X560243Y160757D01*
X560243Y155757D02*
X554757Y155757D01*
X554757Y157243D01*
X560243Y157243D01*
X560243Y155757D01*
X560243Y150757D02*
X554757Y150757D01*
X554757Y152243D01*
X560243Y152243D01*
X560243Y150757D01*
X560243Y145757D02*
X554757Y145757D01*
X554757Y147243D01*
X560243Y147243D01*
X560243Y145757D01*
X560243Y140757D02*
X554757Y140757D01*
X554757Y142243D01*
X560243Y142243D01*
X560243Y140757D01*
X560243Y135757D02*
X554757Y135757D01*
X554757Y137243D01*
X560243Y137243D01*
X560243Y135757D01*
X560243Y130757D02*
X554757Y130757D01*
X554757Y132243D01*
X560243Y132243D01*
X560243Y130757D01*
X560243Y125757D02*
X554757Y125757D01*
X554757Y127243D01*
X560243Y127243D01*
X560243Y125757D01*
X552243Y117757D02*
X550757Y117757D01*
X550757Y123243D01*
X552243Y123243D01*
X552243Y117757D01*
X552243Y120160D02*
X550757Y120160D01*
X550757Y122563D02*
X552243Y122563D01*
X547243Y117757D02*
X545757Y117757D01*
X545757Y123243D01*
X547243Y123243D01*
X547243Y117757D01*
X547243Y120160D02*
X545757Y120160D01*
X545757Y122563D02*
X547243Y122563D01*
X542243Y117757D02*
X540757Y117757D01*
X540757Y123243D01*
X542243Y123243D01*
X542243Y117757D01*
X542243Y120160D02*
X540757Y120160D01*
X540757Y122563D02*
X542243Y122563D01*
X537243Y117757D02*
X535757Y117757D01*
X535757Y123243D01*
X537243Y123243D01*
X537243Y117757D01*
X537243Y120160D02*
X535757Y120160D01*
X535757Y122563D02*
X537243Y122563D01*
X532243Y117757D02*
X530757Y117757D01*
X530757Y123243D01*
X532243Y123243D01*
X532243Y117757D01*
X532243Y120160D02*
X530757Y120160D01*
X530757Y122563D02*
X532243Y122563D01*
X527243Y117757D02*
X525757Y117757D01*
X525757Y123243D01*
X527243Y123243D01*
X527243Y117757D01*
X527243Y120160D02*
X525757Y120160D01*
X525757Y122563D02*
X527243Y122563D01*
X522243Y117757D02*
X520757Y117757D01*
X520757Y123243D01*
X522243Y123243D01*
X522243Y117757D01*
X522243Y120160D02*
X520757Y120160D01*
X520757Y122563D02*
X522243Y122563D01*
X517243Y117757D02*
X515757Y117757D01*
X515757Y123243D01*
X517243Y123243D01*
X517243Y117757D01*
X517243Y120160D02*
X515757Y120160D01*
X515757Y122563D02*
X517243Y122563D01*
D13*
X534000Y144000D03*
D14*
X531000Y68000D03*
X531000Y76000D03*
X531000Y84000D03*
X531000Y92000D03*
X547000Y92000D03*
X547000Y84000D03*
X547000Y76000D03*
X547000Y68000D03*
D15*
X486000Y175500D03*
X486000Y142500D03*
D16*
X517000Y77000D03*
X517000Y72000D03*
X517000Y67000D03*
X503000Y67000D03*
X503000Y72000D03*
X503000Y77000D03*
D17*
X389000Y107000D03*
D18*
X383700Y119700D02*
X394300Y119700D01*
X394300Y132400D02*
X383700Y132400D01*
X383700Y145100D02*
X394300Y145100D01*
D19*
X613000Y125000D03*
X613000Y85000D03*
X613000Y65000D03*
X613000Y45000D03*
D20*
X613000Y146000D03*
X613000Y24000D03*
D21*
X471500Y74000D03*
X488500Y74000D03*
D22*
X479000Y111000D03*
X469500Y89000D03*
X488500Y89000D03*
D23*
X521750Y35000D03*
X511750Y35000D03*
X501750Y35000D03*
X491750Y35000D03*
X531750Y35000D03*
X541750Y35000D03*
X481750Y35000D03*
X551750Y35000D03*
D24*
X457000Y71450D03*
X457000Y92550D03*
D25*
X389000Y145000D03*
X389000Y107000D03*
M02*
